<svg width="282" height="224" viewBox="0 0 282 224" fill="none" xmlns="http://www.w3.org/2000/svg">
<g filter="url(#filter0_dddddd_26_35)">
<path d="M83.9353 2.0021C84.3226 2 84.7061 2 85.0944 2H191.6C191.98 2 192.367 1.9999 192.747 2.002C193.011 2.00362 193.279 2.00805 193.545 2.01242C193.605 2.01341 193.664 2.01439 193.723 2.01533C194.433 2.02313 195.141 2.08516 195.841 2.20087C196.543 2.31943 197.224 2.54132 197.861 2.85921C199.134 3.50783 200.17 4.536 200.824 5.7991C201.143 6.42841 201.364 7.10223 201.479 7.79746C201.597 8.49234 201.663 9.19498 201.676 9.89955C201.68 10.2216 201.68 10.5446 201.68 10.8666C201.689 11.247 201.689 11.6284 201.689 12.013V33.988C201.689 34.3756 201.689 34.755 201.68 35.1364C201.68 35.4625 201.68 35.7783 201.676 36.1044C201.663 36.809 201.597 37.5116 201.479 38.2064C201.365 38.9021 201.144 39.5763 200.824 40.2059C200.499 40.8325 200.077 41.4045 199.573 41.9009C199.073 42.4016 198.495 42.8195 197.861 43.1386C197.224 43.4573 196.543 43.6805 195.841 43.8009C195.141 43.9157 194.433 43.9778 193.723 43.9866C193.401 43.9937 193.07 43.9978 192.747 43.9978C192.367 43.9999 191.98 43.9999 191.599 43.9999H85.0944C84.7061 43.9999 84.3226 43.9999 83.9354 43.9978C83.6112 43.9978 83.2896 43.9937 82.9625 43.9866C82.2516 43.9773 81.5425 43.9152 80.8409 43.8009C80.1405 43.6814 79.462 43.4581 78.8285 43.1386C78.1941 42.8197 77.6156 42.4018 77.1149 41.9009C76.6095 41.4065 76.1883 40.834 75.8675 40.2059C75.5454 39.5768 75.3223 38.9025 75.2058 38.2064C75.0879 37.5117 75.0245 36.809 75.0161 36.1045C75.0094 35.8815 75.0067 35.6633 75.0041 35.4434C75.0029 35.3416 75.0016 35.2396 75 35.1364V10.8666C75.0017 10.7636 75.0029 10.6604 75.0041 10.5573C75.0068 10.338 75.0094 10.1186 75.0161 9.89966C75.0245 9.19515 75.0879 8.49235 75.2058 7.79756C75.3226 7.10187 75.5457 6.42792 75.8675 5.799C76.1884 5.16888 76.6096 4.59417 77.1149 4.09695C77.6175 3.59829 78.1957 3.1807 78.8285 2.85932C79.4621 2.54065 80.1405 2.3187 80.8409 2.20097C81.5423 2.08575 82.2516 2.02373 82.9625 2.01544C83.0295 2.01438 83.0963 2.01329 83.1629 2.0122C83.4215 2.00796 83.6776 2.00377 83.9353 2.0021Z" fill="black"/>
</g>
<path d="M83.9404 43.081C83.6178 43.081 83.3031 43.0769 82.983 43.0697C82.32 43.0612 81.6586 43.004 81.0042 42.8986C80.394 42.7943 79.8028 42.6004 79.2502 42.3232C78.7027 42.0483 78.2034 41.6879 77.7712 41.2558C77.3328 40.8287 76.9679 40.3334 76.6907 39.7894C76.4106 39.242 76.2167 38.6551 76.1159 38.0494C76.007 37.3985 75.9481 36.7404 75.9397 36.0806C75.9329 35.8592 75.9241 35.122 75.9241 35.122V10.8663C75.9241 10.8663 75.9334 10.1403 75.9397 9.92698C75.9478 9.26832 76.0063 8.61123 76.1149 7.96138C76.216 7.35398 76.41 6.76546 76.6903 6.21618C76.9664 5.6726 77.3293 5.1769 77.765 4.74829C78.2002 4.31561 78.7012 3.95333 79.2497 3.67467C79.801 3.39841 80.3911 3.20589 81.0001 3.10357C81.6567 2.99712 82.3204 2.9396 82.9857 2.93148L83.9409 2.91846H192.742L193.709 2.93179C194.368 2.93956 195.026 2.99663 195.676 3.10252C196.291 3.20616 196.888 3.40005 197.445 3.67782C198.544 4.23939 199.438 5.12786 200.002 6.2187C200.278 6.76421 200.469 7.34797 200.569 7.95015C200.678 8.60531 200.74 9.26756 200.753 9.9316C200.756 10.229 200.756 10.5484 200.756 10.8663C200.764 11.2601 200.764 11.6348 200.764 12.0127V33.9877C200.764 34.3691 200.764 34.7414 200.756 35.1166C200.756 35.4581 200.756 35.7709 200.751 36.0928C200.739 36.745 200.679 37.3955 200.57 38.039C200.472 38.6491 200.279 39.2405 199.999 39.7925C199.72 40.3305 199.357 40.8215 198.924 41.2475C198.491 41.6819 197.991 42.0445 197.442 42.3211C196.886 42.6004 196.291 42.795 195.676 42.8984C195.022 43.0044 194.36 43.0616 193.697 43.0696C193.381 43.077 193.064 43.0807 192.747 43.0809L191.6 43.083L83.9404 43.081Z" fill="black"/>
<path d="M101.223 23.3161C101.234 22.4397 101.469 21.5804 101.905 20.8182C102.341 20.056 102.965 19.4155 103.718 18.9565C103.239 18.2791 102.608 17.7216 101.875 17.3283C101.141 16.935 100.326 16.7168 99.4922 16.6909C97.7143 16.5058 95.9909 17.746 95.0848 17.746C94.1614 17.746 92.7666 16.7093 91.2646 16.74C90.2931 16.7711 89.3462 17.0512 88.5163 17.5532C87.6864 18.0551 87.0017 18.7617 86.5291 19.6041C84.4815 23.1201 86.0088 28.2871 87.9703 31.129C88.9516 32.5207 90.0984 34.0751 91.5991 34.02C93.0675 33.9596 93.6159 33.0913 95.3886 33.0913C97.1447 33.0913 97.6593 34.02 99.1903 33.9849C100.766 33.9596 101.759 32.5872 102.706 31.1824C103.411 30.1908 103.953 29.0949 104.313 27.9352C103.398 27.5512 102.617 26.9084 102.067 26.087C101.517 25.2656 101.224 24.3019 101.223 23.3161ZM98.3308 14.8218C99.1899 13.7989 99.6132 12.4841 99.5107 11.1567C98.1981 11.2934 96.9856 11.9156 96.1148 12.8993C95.6891 13.3798 95.363 13.9389 95.1552 14.5445C94.9475 15.1501 94.8621 15.7904 94.904 16.4287C95.5605 16.4354 96.2101 16.2943 96.8036 16.016C97.3972 15.7376 97.9194 15.3293 98.3308 14.8218ZM119.785 30.497H114.774L113.571 34.0212H111.448L116.195 20.9824H118.4L123.146 34.0212H120.988L119.785 30.497ZM115.293 28.8707H119.265L117.307 23.1511H117.252L115.293 28.8707ZM133.397 29.2686C133.397 32.2227 131.803 34.1207 129.397 34.1207C128.788 34.1523 128.182 34.0131 127.648 33.7189C127.115 33.4248 126.676 32.9876 126.381 32.4575H126.336V37.1661H124.368V24.5149H126.273V26.0961H126.309C126.617 25.5685 127.064 25.1336 127.601 24.8376C128.138 24.5417 128.747 24.3958 129.361 24.4154C131.794 24.4154 133.397 26.3227 133.397 29.2685V29.2686ZM131.375 29.2686C131.375 27.344 130.372 26.0786 128.842 26.0786C127.339 26.0786 126.328 27.3706 126.328 29.2685C126.328 31.184 127.339 32.4668 128.842 32.4668C130.372 32.4668 131.375 31.2107 131.375 29.2685V29.2686ZM143.947 29.2686C143.947 32.2227 142.353 34.1207 139.947 34.1207C139.338 34.1523 138.732 34.013 138.198 33.7189C137.665 33.4248 137.226 32.9876 136.931 32.4575H136.886V37.1661H134.918V24.5149H136.823V26.0961H136.859C137.167 25.5685 137.613 25.1336 138.151 24.8376C138.688 24.5417 139.296 24.3958 139.911 24.4154C142.344 24.4154 143.947 26.3227 143.947 29.2685V29.2686ZM141.925 29.2686C141.925 27.344 140.922 26.0786 139.392 26.0786C137.889 26.0786 136.877 27.3706 136.877 29.2685C136.877 31.184 137.889 32.4668 139.392 32.4668C140.922 32.4668 141.925 31.2107 141.925 29.2685V29.2686ZM150.92 30.3884C151.066 31.6813 152.332 32.5303 154.063 32.5303C155.721 32.5303 156.914 31.6813 156.914 30.5154C156.914 29.5033 156.195 28.8974 154.491 28.4821L152.787 28.075C150.373 27.4967 149.252 26.3769 149.252 24.5599C149.252 22.3102 151.229 20.765 154.036 20.765C156.814 20.765 158.718 22.3102 158.782 24.5599H156.796C156.677 23.2588 155.593 22.4733 154.008 22.4733C152.423 22.4733 151.338 23.268 151.338 24.4246C151.338 25.3465 152.031 25.8889 153.726 26.3041L155.174 26.6569C157.871 27.2895 158.992 28.3642 158.992 30.2713C158.992 32.7107 157.033 34.2386 153.917 34.2386C151.001 34.2386 149.033 32.7465 148.906 30.3882L150.92 30.3884ZM163.238 22.2653V24.5149H165.061V26.0602H163.238V31.3009C163.238 32.1151 163.603 32.4944 164.405 32.4944C164.621 32.4907 164.837 32.4756 165.052 32.4493V33.9854C164.692 34.0521 164.325 34.0823 163.959 34.0755C162.019 34.0755 161.262 33.3527 161.262 31.509V26.0602H159.868V24.5149H161.262V22.2653H163.238ZM166.117 29.2686C166.117 26.2775 167.893 24.398 170.663 24.398C173.442 24.398 175.21 26.2775 175.21 29.2686C175.21 32.2678 173.451 34.1392 170.663 34.1392C167.875 34.1392 166.117 32.2678 166.117 29.2686ZM173.205 29.2686C173.205 27.2168 172.257 26.0058 170.663 26.0058C169.069 26.0058 168.121 27.226 168.121 29.2686C168.121 31.3286 169.069 32.5303 170.663 32.5303C172.257 32.5303 173.205 31.3286 173.205 29.2686ZM176.832 24.5149H178.708V26.1329H178.754C178.881 25.6276 179.179 25.181 179.599 24.8682C180.019 24.5554 180.535 24.3955 181.06 24.4154C181.286 24.4146 181.512 24.4391 181.734 24.4882V26.3134C181.447 26.2267 181.149 26.1868 180.85 26.1955C180.564 26.184 180.279 26.234 180.014 26.342C179.75 26.45 179.512 26.6136 179.317 26.8213C179.123 27.0291 178.975 27.2763 178.886 27.5458C178.797 27.8153 178.767 28.1008 178.8 28.3826V34.0212H176.832V24.5149ZM190.805 31.2291C190.54 32.9549 188.846 34.1392 186.678 34.1392C183.889 34.1392 182.159 32.2863 182.159 29.3137C182.159 26.3319 183.899 24.398 186.595 24.398C189.247 24.398 190.915 26.2047 190.915 29.0871V29.7556H184.145V29.8735C184.113 30.2234 184.158 30.5758 184.274 30.9075C184.391 31.2391 184.577 31.5423 184.821 31.797C185.065 32.0517 185.361 32.252 185.689 32.3846C186.017 32.5173 186.369 32.5792 186.723 32.5663C187.188 32.6095 187.655 32.5027 188.054 32.2618C188.452 32.0208 188.762 31.6586 188.937 31.2291H190.805ZM184.154 28.3919H188.946C188.964 28.0773 188.916 27.7625 188.805 27.4672C188.694 27.1719 188.523 26.9026 188.302 26.676C188.081 26.4495 187.816 26.2706 187.522 26.1507C187.228 26.0307 186.913 25.9723 186.595 25.9791C186.275 25.9772 185.957 26.0383 185.66 26.1588C185.364 26.2792 185.094 26.4568 184.868 26.6811C184.641 26.9054 184.461 27.1721 184.338 27.4657C184.216 27.7593 184.153 28.0741 184.154 28.3919ZM115.046 11.1679C115.459 11.1386 115.873 11.2004 116.258 11.3489C116.644 11.4974 116.991 11.7289 117.276 12.0267C117.56 12.3245 117.774 12.6812 117.903 13.0711C118.031 13.4609 118.071 13.8742 118.019 14.2811C118.019 16.2826 116.928 17.4332 115.046 17.4332H112.765V11.1678L115.046 11.1679ZM113.746 16.5471H114.937C115.232 16.5645 115.527 16.5166 115.8 16.4067C116.074 16.2969 116.32 16.1279 116.519 15.912C116.719 15.6962 116.867 15.439 116.954 15.159C117.041 14.8791 117.063 14.5835 117.02 14.2938C117.06 14.0052 117.035 13.7115 116.947 13.4336C116.859 13.1557 116.71 12.9005 116.511 12.6864C116.312 12.4723 116.068 12.3045 115.796 12.195C115.523 12.0856 115.23 12.0372 114.937 12.0533H113.746V16.5471ZM119.127 15.067C119.097 14.7563 119.133 14.4428 119.232 14.1466C119.332 13.8504 119.492 13.5781 119.704 13.3471C119.916 13.1162 120.174 12.9316 120.462 12.8053C120.749 12.679 121.061 12.6138 121.375 12.6138C121.69 12.6138 122.001 12.679 122.289 12.8053C122.577 12.9316 122.835 13.1162 123.047 13.3471C123.258 13.5781 123.419 13.8504 123.518 14.1466C123.618 14.4428 123.654 14.7563 123.624 15.067C123.654 15.3781 123.619 15.6921 123.52 15.9888C123.421 16.2855 123.26 16.5584 123.048 16.7899C122.837 17.0214 122.578 17.2064 122.29 17.333C122.002 17.4596 121.691 17.525 121.375 17.525C121.06 17.525 120.749 17.4596 120.46 17.333C120.172 17.2064 119.914 17.0214 119.702 16.7899C119.491 16.5584 119.33 16.2855 119.231 15.9888C119.132 15.6921 119.097 15.3781 119.127 15.067ZM122.656 15.067C122.656 14.0421 122.192 13.4428 121.377 13.4428C120.559 13.4428 120.099 14.0421 120.099 15.067C120.099 16.1001 120.559 16.6948 121.377 16.6948C122.192 16.6948 122.656 16.096 122.656 15.067ZM129.601 17.4331H128.624L127.639 13.9508H127.565L126.584 17.4331H125.617L124.303 12.7049H125.257L126.111 16.3127H126.181L127.162 12.7049H128.064L129.044 16.3127H129.119L129.969 12.7049H130.909L129.601 17.4331ZM132.015 12.705H132.92V13.4561H132.991C133.11 13.1863 133.311 12.9601 133.566 12.8091C133.821 12.6581 134.117 12.5898 134.413 12.6137C134.645 12.5964 134.878 12.6311 135.095 12.7152C135.311 12.7993 135.506 12.9306 135.665 13.0995C135.823 13.2684 135.941 13.4705 136.01 13.6908C136.079 13.9111 136.097 14.144 136.063 14.3722V17.433H135.122V14.6066C135.122 13.8468 134.79 13.4689 134.094 13.4689C133.936 13.4616 133.779 13.4882 133.633 13.5469C133.487 13.6055 133.355 13.6947 133.247 13.8085C133.139 13.9223 133.057 14.058 133.007 14.2062C132.956 14.3543 132.939 14.5116 132.955 14.6671V17.4331H132.015V12.705ZM137.562 10.8592H138.503V17.4331H137.562V10.8592ZM139.811 15.067C139.781 14.7562 139.817 14.4427 139.916 14.1465C140.016 13.8503 140.176 13.5779 140.388 13.3469C140.6 13.1159 140.858 12.9313 141.146 12.805C141.434 12.6787 141.745 12.6135 142.06 12.6135C142.374 12.6135 142.686 12.6787 142.973 12.805C143.261 12.9313 143.519 13.1159 143.731 13.3469C143.943 13.5779 144.103 13.8503 144.203 14.1465C144.302 14.4427 144.338 14.7562 144.308 15.067C144.339 15.378 144.303 15.6919 144.204 15.9886C144.105 16.2852 143.944 16.558 143.732 16.7894C143.521 17.0208 143.262 17.2057 142.974 17.3322C142.686 17.4588 142.375 17.5241 142.06 17.5241C141.745 17.5241 141.433 17.4588 141.145 17.3322C140.857 17.2057 140.599 17.0208 140.387 16.7894C140.175 16.558 140.014 16.2852 139.915 15.9886C139.816 15.6919 139.781 15.378 139.811 15.067ZM143.34 15.067C143.34 14.0421 142.876 13.4428 142.061 13.4428C141.243 13.4428 140.783 14.0421 140.783 15.067C140.783 16.1001 141.243 16.6948 142.061 16.6948C142.876 16.6948 143.34 16.096 143.34 15.067ZM145.298 16.096C145.298 15.2449 145.937 14.7542 147.072 14.6845L148.363 14.6107V14.2025C148.363 13.7032 148.03 13.4212 147.387 13.4212C146.862 13.4212 146.498 13.6124 146.393 13.9468H145.482C145.579 13.1346 146.349 12.6138 147.43 12.6138C148.626 12.6138 149.3 13.2039 149.3 14.2025V17.4331H148.394V16.7686H148.319C148.168 17.007 147.956 17.2013 147.705 17.3317C147.453 17.4621 147.171 17.524 146.888 17.511C146.687 17.5316 146.485 17.5104 146.294 17.4488C146.102 17.3872 145.926 17.2865 145.777 17.1531C145.627 17.0198 145.507 16.8569 145.425 16.6748C145.342 16.4927 145.299 16.2955 145.298 16.096ZM148.363 15.692V15.2966L147.199 15.3704C146.542 15.414 146.244 15.6356 146.244 16.0523C146.244 16.4779 146.617 16.7256 147.128 16.7256C147.278 16.7406 147.43 16.7256 147.574 16.6814C147.718 16.6372 147.851 16.5648 147.967 16.4683C148.082 16.3719 148.176 16.2534 148.244 16.1201C148.312 15.9867 148.353 15.8411 148.363 15.692ZM150.536 15.067C150.536 13.573 151.311 12.6266 152.515 12.6266C152.813 12.613 153.109 12.6837 153.368 12.8306C153.626 12.9775 153.838 13.1945 153.977 13.4561H154.047V10.8591H154.988V17.433H154.087V16.6859H154.012C153.862 16.9458 153.643 17.16 153.38 17.3054C153.116 17.4508 152.817 17.5219 152.515 17.5109C151.302 17.5109 150.536 16.5644 150.536 15.0669V15.067ZM151.508 15.067C151.508 16.0697 151.985 16.6733 152.782 16.6733C153.575 16.6733 154.065 16.0611 154.065 15.071C154.065 14.0857 153.57 13.4648 152.782 13.4648C151.99 13.4648 151.508 14.0723 151.508 15.067ZM158.881 15.067C158.851 14.7563 158.886 14.4428 158.986 14.1466C159.085 13.8504 159.246 13.5781 159.458 13.3471C159.669 13.1162 159.927 12.9316 160.215 12.8053C160.503 12.679 160.814 12.6138 161.129 12.6138C161.443 12.6138 161.755 12.679 162.043 12.8053C162.33 12.9316 162.588 13.1162 162.8 13.3471C163.012 13.5781 163.172 13.8504 163.272 14.1466C163.371 14.4428 163.407 14.7563 163.377 15.067C163.408 15.3781 163.372 15.6921 163.273 15.9888C163.174 16.2855 163.014 16.5584 162.802 16.7899C162.59 17.0214 162.332 17.2064 162.044 17.333C161.756 17.4596 161.444 17.525 161.129 17.525C160.814 17.525 160.502 17.4596 160.214 17.333C159.926 17.2064 159.667 17.0214 159.456 16.7899C159.244 16.5584 159.083 16.2855 158.984 15.9888C158.885 15.6921 158.85 15.3781 158.881 15.067ZM162.409 15.067C162.409 14.0421 161.945 13.4428 161.13 13.4428C160.313 13.4428 159.853 14.0421 159.853 15.067C159.853 16.1001 160.313 16.6948 161.13 16.6948C161.945 16.6948 162.409 16.096 162.409 15.067ZM164.639 12.705H165.545V13.4561H165.615C165.735 13.1863 165.936 12.9601 166.191 12.8091C166.446 12.6581 166.742 12.5898 167.038 12.6137C167.27 12.5964 167.503 12.6311 167.719 12.7152C167.936 12.7993 168.131 12.9306 168.289 13.0995C168.448 13.2684 168.566 13.4705 168.635 13.6908C168.704 13.9111 168.722 14.144 168.688 14.3722V17.433H167.747V14.6066C167.747 13.8468 167.414 13.4689 166.718 13.4689C166.561 13.4616 166.404 13.4882 166.258 13.5469C166.111 13.6055 165.98 13.6947 165.872 13.8085C165.764 13.9223 165.682 14.058 165.631 14.2062C165.581 14.3543 165.563 14.5116 165.58 14.6671V17.4331H164.639L164.639 12.705ZM174.004 11.5279V12.7266H175.037V13.5125H174.004V15.9436C174.004 16.4389 174.21 16.6559 174.678 16.6559C174.798 16.6554 174.918 16.6482 175.037 16.6342V17.4115C174.868 17.4415 174.697 17.4575 174.525 17.4592C173.479 17.4592 173.062 17.0941 173.062 16.1826V13.5125H172.306V12.7264H173.062V11.528L174.004 11.5279ZM176.322 10.8592H177.255V13.4648H177.329C177.454 13.1925 177.661 12.9651 177.921 12.8135C178.181 12.6619 178.482 12.5936 178.783 12.6178C179.014 12.6053 179.244 12.6435 179.459 12.7297C179.673 12.8158 179.865 12.9478 180.022 13.1162C180.179 13.2845 180.296 13.4851 180.366 13.7037C180.435 13.9222 180.455 14.1533 180.425 14.3805V17.4331H179.483V14.6107C179.483 13.8554 179.128 13.473 178.463 13.473C178.302 13.4599 178.139 13.4819 177.987 13.5376C177.835 13.5933 177.697 13.6813 177.582 13.7955C177.468 13.9097 177.38 14.0473 177.325 14.1986C177.27 14.3499 177.249 14.5114 177.263 14.6717V17.4331H176.322V10.8592ZM185.911 16.1564C185.783 16.5885 185.506 16.9623 185.128 17.2124C184.751 17.4625 184.296 17.5729 183.845 17.5243C183.531 17.5325 183.219 17.4729 182.93 17.3495C182.642 17.2261 182.384 17.0419 182.174 16.8097C181.965 16.5775 181.809 16.3029 181.717 16.0048C181.625 15.7068 181.6 15.3926 181.643 15.0839C181.601 14.7743 181.627 14.4593 181.718 14.1604C181.81 13.8615 181.965 13.5856 182.173 13.3513C182.382 13.1171 182.638 12.93 182.926 12.8027C183.214 12.6755 183.526 12.611 183.841 12.6137C185.167 12.6137 185.967 13.5125 185.967 14.9972V15.3228H182.601V15.3751C182.586 15.5486 182.608 15.7232 182.666 15.8878C182.723 16.0524 182.814 16.2033 182.934 16.3308C183.053 16.4583 183.198 16.5597 183.36 16.6284C183.521 16.697 183.695 16.7315 183.871 16.7296C184.096 16.7564 184.324 16.7162 184.526 16.6141C184.728 16.512 184.894 16.3527 185.005 16.1564H185.911ZM182.601 14.6327H185.009C185.021 14.474 184.999 14.3146 184.945 14.1648C184.891 14.0149 184.806 13.8779 184.696 13.7626C184.585 13.6472 184.452 13.5561 184.303 13.495C184.155 13.4339 183.996 13.4043 183.836 13.4079C183.673 13.4059 183.511 13.4362 183.361 13.497C183.21 13.5578 183.073 13.648 182.958 13.7621C182.843 13.8763 182.752 14.0121 182.691 14.1616C182.629 14.3112 182.599 14.4713 182.601 14.6327Z" fill="white"/>
<defs>
<filter id="filter0_dddddd_26_35" x="-5" y="0.703704" width="286.689" height="223.296" filterUnits="userSpaceOnUse" color-interpolation-filters="sRGB">
<feFlood flood-opacity="0" result="BackgroundImageFix"/>
<feColorMatrix in="SourceAlpha" type="matrix" values="0 0 0 0 0 0 0 0 0 0 0 0 0 0 0 0 0 0 127 0" result="hardAlpha"/>
<feOffset dy="1.85185"/>
<feGaussianBlur stdDeviation="1.57407"/>
<feColorMatrix type="matrix" values="0 0 0 0 0.219608 0 0 0 0 0.219608 0 0 0 0 0.219608 0 0 0 0.0240741 0"/>
<feBlend mode="normal" in2="BackgroundImageFix" result="effect1_dropShadow_26_35"/>
<feColorMatrix in="SourceAlpha" type="matrix" values="0 0 0 0 0 0 0 0 0 0 0 0 0 0 0 0 0 0 127 0" result="hardAlpha"/>
<feOffset dy="8.14815"/>
<feGaussianBlur stdDeviation="3.25926"/>
<feColorMatrix type="matrix" values="0 0 0 0 0.219608 0 0 0 0 0.219608 0 0 0 0 0.219608 0 0 0 0.0392593 0"/>
<feBlend mode="normal" in2="effect1_dropShadow_26_35" result="effect2_dropShadow_26_35"/>
<feColorMatrix in="SourceAlpha" type="matrix" values="0 0 0 0 0 0 0 0 0 0 0 0 0 0 0 0 0 0 127 0" result="hardAlpha"/>
<feOffset dy="20"/>
<feGaussianBlur stdDeviation="6.5"/>
<feColorMatrix type="matrix" values="0 0 0 0 0.219608 0 0 0 0 0.219608 0 0 0 0 0.219608 0 0 0 0.05 0"/>
<feBlend mode="normal" in2="effect2_dropShadow_26_35" result="effect3_dropShadow_26_35"/>
<feColorMatrix in="SourceAlpha" type="matrix" values="0 0 0 0 0 0 0 0 0 0 0 0 0 0 0 0 0 0 127 0" result="hardAlpha"/>
<feOffset dy="38.5185"/>
<feGaussianBlur stdDeviation="12.7407"/>
<feColorMatrix type="matrix" values="0 0 0 0 0.219608 0 0 0 0 0.219608 0 0 0 0 0.219608 0 0 0 0.0607407 0"/>
<feBlend mode="normal" in2="effect3_dropShadow_26_35" result="effect4_dropShadow_26_35"/>
<feColorMatrix in="SourceAlpha" type="matrix" values="0 0 0 0 0 0 0 0 0 0 0 0 0 0 0 0 0 0 127 0" result="hardAlpha"/>
<feOffset dy="64.8148"/>
<feGaussianBlur stdDeviation="23.4259"/>
<feColorMatrix type="matrix" values="0 0 0 0 0.219608 0 0 0 0 0.219608 0 0 0 0 0.219608 0 0 0 0.0759259 0"/>
<feBlend mode="normal" in2="effect4_dropShadow_26_35" result="effect5_dropShadow_26_35"/>
<feColorMatrix in="SourceAlpha" type="matrix" values="0 0 0 0 0 0 0 0 0 0 0 0 0 0 0 0 0 0 127 0" result="hardAlpha"/>
<feOffset dy="100"/>
<feGaussianBlur stdDeviation="40"/>
<feColorMatrix type="matrix" values="0 0 0 0 0.219608 0 0 0 0 0.219608 0 0 0 0 0.219608 0 0 0 0.1 0"/>
<feBlend mode="normal" in2="effect5_dropShadow_26_35" result="effect6_dropShadow_26_35"/>
<feBlend mode="normal" in="SourceGraphic" in2="effect6_dropShadow_26_35" result="shape"/>
</filter>
</defs>
</svg>
