<svg width="126" height="42" viewBox="0 0 126 42" fill="none" xmlns="http://www.w3.org/2000/svg">
<path d="M8.94039 41.081C8.6178 41.081 8.30305 41.0769 7.98301 41.0697C7.32005 41.0612 6.65863 41.004 6.00419 40.8986C5.39396 40.7943 4.80281 40.6004 4.25025 40.3232C3.70273 40.0483 3.20335 39.6879 2.77124 39.2558C2.33285 38.8287 1.96786 38.3334 1.69074 37.7894C1.41059 37.242 1.21672 36.6551 1.11586 36.0494C1.00698 35.3985 0.948093 34.7404 0.939696 34.0806C0.93292 33.8592 0.924133 33.122 0.924133 33.122V8.86631C0.924133 8.86631 0.93345 8.14034 0.939696 7.92698C0.947763 7.26832 1.00634 6.61123 1.11491 5.96138C1.21596 5.35398 1.41 4.76545 1.69031 4.21618C1.96637 3.6726 2.32929 3.1769 2.765 2.74829C3.20025 2.31561 3.70125 1.95333 4.24972 1.67467C4.80102 1.39841 5.39106 1.20589 6.00006 1.10357C6.65667 0.997123 7.32039 0.939597 7.98565 0.931477L8.94092 0.918457H117.742L118.709 0.931792C119.368 0.93956 120.026 0.996631 120.676 1.10252C121.291 1.20616 121.888 1.40005 122.445 1.67782C123.544 2.23939 124.438 3.12786 125.002 4.2187C125.278 4.76421 125.469 5.34797 125.569 5.95015C125.678 6.60531 125.74 7.26756 125.753 7.9316C125.756 8.22896 125.756 8.54837 125.756 8.86631C125.764 9.26006 125.764 9.6348 125.764 10.0127V31.9877C125.764 32.3691 125.764 32.7414 125.756 33.1166C125.756 33.4581 125.756 33.7709 125.751 34.0928C125.739 34.745 125.679 35.3955 125.57 36.039C125.472 36.6491 125.279 37.2405 124.999 37.7925C124.72 38.3305 124.357 38.8215 123.924 39.2475C123.491 39.6819 122.991 40.0445 122.442 40.3211C121.886 40.6004 121.291 40.795 120.676 40.8984C120.022 41.0044 119.36 41.0616 118.697 41.0696C118.381 41.077 118.064 41.0807 117.747 41.0809L116.6 41.083L8.94039 41.081Z" fill="black"/>
<path d="M26.2227 21.3161C26.2341 20.4397 26.4688 19.5804 26.905 18.8182C27.3412 18.056 27.9647 17.4155 28.7176 16.9565C28.2393 16.2791 27.6084 15.7216 26.8749 15.3283C26.1414 14.935 25.3256 14.7168 24.4922 14.6909C22.7143 14.5058 20.9909 15.746 20.0848 15.746C19.1614 15.746 17.7666 14.7093 16.2646 14.74C15.2931 14.7711 14.3462 15.0512 13.5163 15.5532C12.6864 16.0551 12.0017 16.7617 11.5291 17.6041C9.48153 21.1201 11.0088 26.2871 12.9703 29.129C13.9516 30.5207 15.0984 32.0751 16.5991 32.02C18.0675 31.9596 18.6159 31.0913 20.3886 31.0913C22.1447 31.0913 22.6593 32.02 24.1903 31.9849C25.7661 31.9596 26.7589 30.5871 27.7058 29.1824C28.4108 28.1908 28.9534 27.0949 29.3133 25.9352C28.3978 25.5512 27.6166 24.9084 27.067 24.087C26.5174 23.2656 26.2238 22.3019 26.2227 21.3161ZM23.3308 12.8218C24.1899 11.7989 24.6132 10.4841 24.5107 9.1567C23.1981 9.29343 21.9856 9.91561 21.1148 10.8993C20.6891 11.3798 20.363 11.9389 20.1552 12.5445C19.9475 13.1501 19.8621 13.7904 19.904 14.4287C20.5605 14.4354 21.2101 14.2943 21.8036 14.016C22.3972 13.7376 22.9194 13.3293 23.3308 12.8218V12.8218ZM44.7853 28.497H39.7741L38.5707 32.0212H36.448L41.1946 18.9824H43.3999L48.1465 32.0212H45.9877L44.7853 28.497ZM40.2931 26.8707H44.2653L42.3071 21.1511H42.2523L40.2931 26.8707ZM58.3974 27.2686C58.3974 30.2227 56.8031 32.1207 54.3974 32.1207C53.7879 32.1523 53.1818 32.0131 52.6484 31.7189C52.115 31.4248 51.6759 30.9876 51.3814 30.4575H51.3359V35.1661H49.3684V22.5149H51.2729V24.0961H51.3091C51.6172 23.5685 52.0636 23.1336 52.6011 22.8376C53.1385 22.5417 53.7468 22.3958 54.3611 22.4154C56.7938 22.4154 58.3974 24.3227 58.3974 27.2685V27.2686ZM56.3751 27.2686C56.3751 25.344 55.3723 24.0786 53.8422 24.0786C52.3388 24.0786 51.3278 25.3706 51.3278 27.2685C51.3278 29.184 52.3388 30.4668 53.8422 30.4668C55.3723 30.4668 56.3751 29.2107 56.3751 27.2685V27.2686ZM68.9471 27.2686C68.9471 30.2227 67.353 32.1207 64.9471 32.1207C64.3376 32.1523 63.7315 32.013 63.1982 31.7189C62.6648 31.4248 62.2258 30.9876 61.9313 30.4575H61.8857V35.1661H59.9183V22.5149H61.8226V24.0961H61.8588C62.1669 23.5685 62.6134 23.1336 63.1508 22.8376C63.6882 22.5417 64.2965 22.3958 64.9109 22.4154C67.3436 22.4154 68.9471 24.3227 68.9471 27.2685V27.2686ZM66.9249 27.2686C66.9249 25.344 65.922 24.0786 64.3919 24.0786C62.8885 24.0786 61.8775 25.3706 61.8775 27.2685C61.8775 29.184 62.8885 30.4668 64.3919 30.4668C65.922 30.4668 66.9249 29.2107 66.9249 27.2685V27.2686ZM75.9197 28.3884C76.0655 29.6813 77.332 30.5303 79.0627 30.5303C80.721 30.5303 81.9142 29.6813 81.9142 28.5154C81.9142 27.5033 81.1946 26.8974 79.4908 26.4821L77.7869 26.075C75.3728 25.4967 74.2521 24.3769 74.2521 22.5599C74.2521 20.3102 76.2289 18.765 79.0358 18.765C81.8138 18.765 83.7183 20.3102 83.7824 22.5599H81.7963C81.6774 21.2588 80.5928 20.4733 79.0079 20.4733C77.423 20.4733 76.3385 21.268 76.3385 22.4246C76.3385 23.3465 77.0312 23.8889 78.7256 24.3041L80.1741 24.6569C82.8715 25.2895 83.9923 26.3642 83.9923 28.2713C83.9923 30.7107 82.0331 32.2386 78.9169 32.2386C76.0013 32.2386 74.0328 30.7465 73.9057 28.3882L75.9197 28.3884ZM88.2384 20.2653V22.5149H90.0612V24.0602H88.2384V29.3009C88.2384 30.1151 88.6034 30.4944 89.4047 30.4944C89.6211 30.4907 89.8371 30.4756 90.0519 30.4493V31.9854C89.6916 32.0521 89.3255 32.0823 88.9591 32.0755C87.0185 32.0755 86.2616 31.3527 86.2616 29.509V24.0602H84.868V22.5149H86.2616V20.2653H88.2384ZM91.1168 27.2686C91.1168 24.2775 92.893 22.398 95.6629 22.398C98.442 22.398 100.21 24.2775 100.21 27.2686C100.21 30.2678 98.4512 32.1392 95.6628 32.1392C92.8754 32.1392 91.1168 30.2678 91.1168 27.2686ZM98.2051 27.2686C98.2051 25.2168 97.2571 24.0058 95.6628 24.0058C94.0686 24.0058 93.1215 25.226 93.1215 27.2686C93.1215 29.3286 94.0686 30.5303 95.6628 30.5303C97.2571 30.5303 98.2051 29.3286 98.2051 27.2686ZM101.832 22.5149H103.708V24.1329H103.754C103.881 23.6276 104.179 23.181 104.599 22.8682C105.019 22.5554 105.535 22.3955 106.06 22.4154C106.286 22.4146 106.512 22.4391 106.734 22.4882V24.3134C106.447 24.2267 106.149 24.1868 105.85 24.1955C105.564 24.184 105.279 24.234 105.014 24.342C104.75 24.45 104.512 24.6136 104.317 24.8213C104.123 25.0291 103.975 25.2763 103.886 25.5458C103.797 25.8153 103.767 26.1008 103.8 26.3826V32.0212H101.832V22.5149ZM115.805 29.2291C115.54 30.9549 113.846 32.1392 111.678 32.1392C108.889 32.1392 107.159 30.2863 107.159 27.3137C107.159 24.3319 108.899 22.398 111.595 22.398C114.247 22.398 115.915 24.2047 115.915 27.0871V27.7556H109.145V27.8735C109.113 28.2234 109.158 28.5758 109.274 28.9075C109.391 29.2391 109.577 29.5423 109.821 29.797C110.065 30.0517 110.361 30.252 110.689 30.3846C111.017 30.5173 111.369 30.5792 111.723 30.5663C112.188 30.6095 112.655 30.5027 113.054 30.2618C113.452 30.0208 113.762 29.6587 113.937 29.2291H115.805ZM109.154 26.3919H113.946C113.964 26.0773 113.916 25.7625 113.805 25.4672C113.694 25.1719 113.523 24.9026 113.302 24.676C113.081 24.4495 112.816 24.2706 112.522 24.1507C112.228 24.0307 111.913 23.9723 111.595 23.9791C111.275 23.9772 110.957 24.0383 110.66 24.1588C110.364 24.2792 110.094 24.4568 109.868 24.6811C109.641 24.9054 109.461 25.1721 109.338 25.4657C109.216 25.7593 109.153 26.0741 109.154 26.3919V26.3919ZM40.0465 9.16793C40.459 9.13857 40.8729 9.20037 41.2584 9.34888C41.6439 9.49739 41.9913 9.7289 42.2757 10.0267C42.56 10.3245 42.7742 10.6812 42.9027 11.0711C43.0312 11.4609 43.0709 11.8742 43.0189 12.2811C43.0189 14.2826 41.9281 15.4332 40.0465 15.4332H37.7647V9.16783L40.0465 9.16793ZM38.7459 14.5471H39.9369C40.2316 14.5645 40.5266 14.5166 40.8003 14.4067C41.074 14.2969 41.3196 14.1279 41.5191 13.912C41.7187 13.6962 41.8672 13.439 41.9538 13.159C42.0405 12.8791 42.0631 12.5835 42.0201 12.2938C42.06 12.0052 42.0351 11.7115 41.9471 11.4336C41.8591 11.1557 41.7102 10.9005 41.5111 10.6864C41.312 10.4723 41.0677 10.3045 40.7955 10.195C40.5233 10.0856 40.2301 10.0372 39.9369 10.0533H38.7459V14.5471ZM44.1272 13.067C44.0973 12.7563 44.1331 12.4428 44.2324 12.1466C44.3318 11.8504 44.4924 11.5781 44.7041 11.3471C44.9158 11.1162 45.1738 10.9316 45.4616 10.8053C45.7494 10.679 46.0607 10.6138 46.3754 10.6138C46.6901 10.6138 47.0013 10.679 47.2892 10.8053C47.577 10.9316 47.835 11.1162 48.0467 11.3471C48.2583 11.5781 48.419 11.8504 48.5183 12.1466C48.6177 12.4428 48.6535 12.7563 48.6235 13.067C48.6542 13.3781 48.6188 13.6921 48.5198 13.9888C48.4207 14.2855 48.2602 14.5584 48.0484 14.7899C47.8367 15.0214 47.5785 15.2064 47.2903 15.333C47.0022 15.4596 46.6905 15.525 46.3754 15.525C46.0602 15.525 45.7486 15.4596 45.4604 15.333C45.1723 15.2064 44.9141 15.0214 44.7023 14.7899C44.4906 14.5584 44.33 14.2855 44.231 13.9888C44.1319 13.6921 44.0966 13.3781 44.1272 13.067ZM47.6559 13.067C47.6559 12.0421 47.1916 11.4428 46.377 11.4428C45.5591 11.4428 45.0991 12.0421 45.0991 13.067C45.0991 14.1001 45.5592 14.6948 46.377 14.6948C47.1916 14.6948 47.6559 14.096 47.6559 13.067V13.067ZM54.6005 15.4331H53.6244L52.6392 11.9508H52.5647L51.5836 15.4331H50.617L49.3029 10.7049H50.2571L51.1112 14.3127H51.1814L52.1616 10.7049H53.0641L54.0443 14.3127H54.1187L54.9685 10.7049H55.9094L54.6005 15.4331ZM57.0146 10.705H57.9203V11.4561H57.9906C58.1098 11.1863 58.311 10.9601 58.566 10.8091C58.821 10.6581 59.1172 10.5898 59.4133 10.6137C59.6452 10.5964 59.8781 10.6311 60.0947 10.7152C60.3113 10.7993 60.5061 10.9306 60.6646 11.0995C60.823 11.2684 60.9411 11.4705 61.0102 11.6908C61.0792 11.9111 61.0974 12.144 61.0633 12.3722V15.433H60.1225V12.6066C60.1225 11.8468 59.7895 11.4689 59.0937 11.4689C58.9363 11.4616 58.779 11.4882 58.6329 11.5469C58.4867 11.6055 58.3551 11.6947 58.247 11.8085C58.1389 11.9223 58.0568 12.058 58.0065 12.2062C57.9562 12.3543 57.9388 12.5116 57.9554 12.6671V15.4331H57.0146V10.705ZM62.5625 8.85924H63.5032V15.4331H62.5625V8.85924ZM64.8111 13.067C64.7812 12.7562 64.817 12.4427 64.9163 12.1465C65.0157 11.8503 65.1764 11.5779 65.3881 11.3469C65.5998 11.1159 65.8579 10.9313 66.1457 10.805C66.4335 10.6787 66.7448 10.6135 67.0596 10.6135C67.3744 10.6135 67.6856 10.6787 67.9735 10.805C68.2613 10.9313 68.5194 11.1159 68.7311 11.3469C68.9428 11.5779 69.1035 11.8503 69.2028 12.1465C69.3022 12.4427 69.338 12.7562 69.3081 13.067C69.3385 13.378 69.3031 13.6919 69.2039 13.9886C69.1048 14.2852 68.9442 14.558 68.7324 14.7894C68.5207 15.0208 68.2625 15.2057 67.9744 15.3322C67.6863 15.4588 67.3747 15.5241 67.0596 15.5241C66.7445 15.5241 66.4329 15.4588 66.1448 15.3322C65.8567 15.2057 65.5985 15.0208 65.3868 14.7894C65.175 14.558 65.0144 14.2852 64.9153 13.9886C64.8161 13.6919 64.7807 13.378 64.8111 13.067V13.067ZM68.3398 13.067C68.3398 12.0421 67.8755 11.4428 67.0609 11.4428C66.243 11.4428 65.783 12.0421 65.783 13.067C65.783 14.1001 66.2431 14.6948 67.0609 14.6948C67.8755 14.6948 68.3398 14.096 68.3398 13.067ZM70.2985 14.096C70.2985 13.2449 70.9374 12.7542 72.0716 12.6845L73.3629 12.6107V12.2025C73.3629 11.7032 73.03 11.4212 72.387 11.4212C71.8617 11.4212 71.4978 11.6124 71.3934 11.9468H70.4825C70.5786 11.1346 71.3489 10.6138 72.4304 10.6138C73.6255 10.6138 74.2996 11.2039 74.2996 12.2025V15.4331H73.3939V14.7686H73.3195C73.1684 15.007 72.9562 15.2013 72.7047 15.3317C72.4531 15.4621 72.1711 15.524 71.8876 15.511C71.6875 15.5316 71.4852 15.5104 71.2938 15.4488C71.1024 15.3872 70.9262 15.2865 70.7765 15.1531C70.6268 15.0198 70.5069 14.8569 70.4246 14.6748C70.3422 14.4927 70.2993 14.2955 70.2985 14.096V14.096ZM73.3629 13.692V13.2966L72.1987 13.3704C71.5422 13.414 71.2444 13.6356 71.2444 14.0523C71.2444 14.4779 71.6167 14.7256 72.1284 14.7256C72.2784 14.7406 72.4299 14.7256 72.5739 14.6814C72.7179 14.6372 72.8514 14.5648 72.9666 14.4683C73.0818 14.3719 73.1762 14.2534 73.2443 14.1201C73.3124 13.9867 73.3527 13.8411 73.3629 13.692V13.692ZM75.5362 13.067C75.5362 11.573 76.3105 10.6266 77.515 10.6266C77.8129 10.613 78.1086 10.6837 78.3675 10.8306C78.6264 10.9775 78.8378 11.1945 78.9769 11.4561H79.0472V8.85913H79.988V15.433H79.0865V14.6859H79.0121C78.8622 14.9458 78.6435 15.16 78.3796 15.3054C78.1157 15.4508 77.8168 15.5219 77.5151 15.5109C76.3022 15.5109 75.5362 14.5644 75.5362 13.0669V13.067ZM76.5081 13.067C76.5081 14.0697 76.9847 14.6733 77.7817 14.6733C78.5746 14.6733 79.0648 14.0611 79.0648 13.071C79.0648 12.0857 78.5696 11.4648 77.7817 11.4648C76.9898 11.4648 76.5081 12.0723 76.5081 13.067ZM83.8806 13.067C83.8506 12.7563 83.8865 12.4428 83.9858 12.1466C84.0852 11.8504 84.2458 11.5781 84.4575 11.3471C84.6692 11.1162 84.9272 10.9316 85.215 10.8053C85.5028 10.679 85.8141 10.6138 86.1288 10.6138C86.4435 10.6138 86.7547 10.679 87.0425 10.8053C87.3303 10.9316 87.5884 11.1162 87.8 11.3471C88.0117 11.5781 88.1724 11.8504 88.2717 12.1466C88.3711 12.4428 88.4069 12.7563 88.3769 13.067C88.4075 13.3781 88.3722 13.6921 88.2732 13.9888C88.1741 14.2855 88.0136 14.5584 87.8018 14.7899C87.5901 15.0214 87.3318 15.2064 87.0437 15.333C86.7556 15.4596 86.4439 15.525 86.1288 15.525C85.8136 15.525 85.502 15.4596 85.2138 15.333C84.9257 15.2064 84.6675 15.0214 84.4557 14.7899C84.244 14.5584 84.0834 14.2855 83.9844 13.9888C83.8853 13.6921 83.85 13.3781 83.8806 13.067V13.067ZM87.4093 13.067C87.4093 12.0421 86.945 11.4428 86.1304 11.4428C85.3125 11.4428 84.8525 12.0421 84.8525 13.067C84.8525 14.1001 85.3126 14.6948 86.1304 14.6948C86.945 14.6948 87.4093 14.096 87.4093 13.067ZM89.6393 10.705H90.545V11.4561H90.6153C90.7346 11.1863 90.9357 10.9601 91.1908 10.8091C91.4458 10.6581 91.742 10.5898 92.038 10.6137C92.27 10.5964 92.5029 10.6311 92.7195 10.7152C92.9361 10.7993 93.1308 10.9306 93.2893 11.0995C93.4478 11.2684 93.5659 11.4705 93.6349 11.6908C93.704 11.9111 93.7221 12.144 93.6881 12.3722V15.433H92.7472V12.6066C92.7472 11.8468 92.4143 11.4689 91.7185 11.4689C91.561 11.4616 91.4038 11.4882 91.2576 11.5469C91.1115 11.6055 90.9798 11.6947 90.8717 11.8085C90.7636 11.9223 90.6816 12.058 90.6313 12.2062C90.5809 12.3543 90.5635 12.5116 90.5802 12.6671V15.4331H89.6394L89.6393 10.705ZM99.0043 9.52787V10.7266H100.037V11.5125H99.0043V13.9436C99.0043 14.4389 99.21 14.6559 99.6784 14.6559C99.7983 14.6554 99.9181 14.6482 100.037 14.6342V15.4115C99.8681 15.4415 99.697 15.4575 99.5253 15.4592C98.4791 15.4592 98.0624 15.0941 98.0624 14.1826V11.5125H97.3057V10.7264H98.0624V9.52798L99.0043 9.52787ZM101.322 8.85924H102.255V11.4648H102.329C102.454 11.1925 102.661 10.9651 102.921 10.8135C103.181 10.6619 103.482 10.5936 103.783 10.6178C104.014 10.6053 104.244 10.6435 104.459 10.7297C104.673 10.8158 104.865 10.9478 105.022 11.1162C105.179 11.2845 105.296 11.4851 105.366 11.7037C105.435 11.9222 105.455 12.1533 105.425 12.3805V15.4331H104.483V12.6107C104.483 11.8554 104.128 11.473 103.463 11.473C103.302 11.4599 103.139 11.4819 102.987 11.5376C102.835 11.5933 102.697 11.6813 102.582 11.7955C102.468 11.9097 102.38 12.0473 102.325 12.1986C102.27 12.3499 102.249 12.5114 102.263 12.6717V15.4331H101.322V8.85924ZM110.911 14.1564C110.783 14.5885 110.506 14.9623 110.128 15.2124C109.751 15.4624 109.296 15.5729 108.845 15.5243C108.531 15.5325 108.219 15.4729 107.93 15.3495C107.642 15.2261 107.384 15.0419 107.174 14.8097C106.965 14.5775 106.809 14.3029 106.717 14.0048C106.625 13.7068 106.6 13.3926 106.643 13.0839C106.601 12.7743 106.627 12.4593 106.718 12.1604C106.81 11.8615 106.965 11.5856 107.173 11.3513C107.382 11.1171 107.638 10.93 107.926 10.8027C108.214 10.6755 108.526 10.611 108.841 10.6137C110.167 10.6137 110.967 11.5125 110.967 12.9972V13.3228H107.601V13.3751C107.586 13.5486 107.608 13.7232 107.666 13.8878C107.723 14.0524 107.814 14.2033 107.934 14.3308C108.053 14.4583 108.198 14.5597 108.36 14.6284C108.521 14.697 108.695 14.7315 108.871 14.7296C109.096 14.7564 109.324 14.7162 109.526 14.6141C109.728 14.512 109.894 14.3527 110.005 14.1564H110.911ZM107.601 12.6327H110.009C110.021 12.474 109.999 12.3146 109.945 12.1648C109.891 12.0149 109.806 11.8779 109.696 11.7626C109.585 11.6472 109.452 11.5561 109.303 11.495C109.155 11.4339 108.996 11.4043 108.836 11.4079C108.673 11.4059 108.511 11.4362 108.361 11.497C108.21 11.5578 108.073 11.648 107.958 11.7621C107.843 11.8763 107.752 12.0121 107.691 12.1616C107.629 12.3112 107.599 12.4713 107.601 12.6327V12.6327Z" fill="white"/>
</svg>
