<svg width="279" height="224" viewBox="0 0 279 224" fill="none" xmlns="http://www.w3.org/2000/svg">
<g filter="url(#filter0_dddddd_26_39)">
<path d="M202.226 2H84.9218C82.3411 2 80.2296 4.3625 80.2296 7.25002V38.75C80.2296 41.6375 82.3411 44 84.9218 44H202.226C204.807 44 206.918 41.6375 206.918 38.75V7.25002C206.918 4.3625 204.807 2 202.226 2Z" fill="black"/>
<path fill-rule="evenodd" clip-rule="evenodd" d="M84.9218 2H202.226C204.807 2 206.918 4.3625 206.918 7.25002V38.75C206.918 41.6375 204.807 44 202.226 44H84.9218C82.3411 44 80.2296 41.6375 80.2296 38.75V7.25002C80.2296 4.3625 82.3411 2 84.9218 2Z" fill="black"/>
</g>
<path d="M201.693 43.3852H85.4798C82.9508 43.3852 80.8815 41.0925 80.8815 38.2904V7.72176C80.8815 4.9196 82.9507 2.62695 85.4798 2.62695H201.693C204.222 2.62695 206.291 4.9196 206.291 7.72176V38.2904C206.291 41.0925 204.222 43.3852 201.693 43.3852Z" fill="black"/>
<path d="M124.729 12.7557C124.729 13.6354 124.496 14.3359 124.03 14.8585C123.5 15.4799 122.81 15.7908 121.961 15.7908C121.148 15.7908 120.457 15.4758 119.889 14.845C119.32 14.2146 119.036 13.4328 119.036 12.5001C119.036 11.567 119.32 10.7857 119.889 10.1548C120.457 9.52445 121.148 9.20898 121.961 9.20898C122.364 9.20898 122.75 9.29723 123.117 9.4732C123.483 9.64959 123.777 9.88375 123.997 10.177L123.502 10.7311C123.13 10.2328 122.616 9.98379 121.961 9.98379C121.368 9.98379 120.856 10.2168 120.423 10.6831C119.991 11.1499 119.774 11.7553 119.774 12.5001C119.774 13.245 119.991 13.8503 120.423 14.3172C120.856 14.7835 121.368 15.0165 121.961 15.0165C122.59 15.0165 123.114 14.7822 123.534 14.3131C123.806 14.0074 123.964 13.5826 124.006 13.037H121.961V12.2803H124.689C124.716 12.4448 124.729 12.6027 124.729 12.7557" fill="white"/>
<path d="M124.729 12.7557H124.635C124.634 13.6154 124.41 14.2831 123.963 14.7843L123.962 14.7852L123.962 14.786C123.449 15.386 122.79 15.6846 121.961 15.6859C121.17 15.6846 120.508 15.3827 119.955 14.7708C119.403 14.1576 119.131 13.409 119.13 12.5001C119.131 11.5908 119.403 10.8427 119.955 10.2299C120.508 9.61757 121.17 9.31527 121.961 9.314C122.352 9.314 122.725 9.39941 123.08 9.56958C123.435 9.74106 123.716 9.96578 123.926 10.2448L123.997 10.177L123.931 10.1028L123.436 10.6572L123.502 10.7311L123.575 10.6639C123.185 10.1409 122.637 9.87725 121.961 9.87881C121.346 9.87796 120.806 10.1237 120.358 10.6077C119.907 11.0933 119.68 11.7327 119.681 12.5001C119.68 13.2676 119.907 13.907 120.358 14.3926C120.806 14.8766 121.346 15.1223 121.961 15.1215C122.611 15.1227 123.164 14.8762 123.6 14.3873C123.891 14.0607 124.056 13.6084 124.099 13.046L124.108 12.932H122.055V12.3853H124.689V12.2803L124.597 12.2987C124.623 12.458 124.635 12.6092 124.635 12.7557H124.823C124.823 12.5961 124.809 12.4321 124.782 12.2615L124.768 12.1753H121.867V13.142H124.006V13.037L123.912 13.028C123.871 13.5563 123.721 13.9542 123.467 14.2389C123.064 14.6884 122.569 14.9102 121.961 14.9115C121.39 14.9106 120.906 14.6908 120.489 14.2417C120.075 13.7942 119.869 13.2228 119.868 12.5001C119.869 11.7774 120.075 11.2061 120.489 10.7586C120.906 10.3095 121.39 10.0897 121.961 10.0888C122.596 10.0905 123.075 10.3251 123.431 10.7988L123.497 10.8866L124.064 10.2513L124.125 10.1832L124.069 10.1097C123.839 9.80217 123.531 9.55806 123.154 9.37686C122.776 9.19508 122.376 9.10401 121.961 9.10401C121.127 9.1032 120.407 9.43131 119.823 10.0806C119.237 10.7287 118.941 11.5433 118.942 12.5001C118.941 13.4566 119.237 14.2716 119.823 14.9201C120.407 15.569 121.127 15.8967 121.961 15.8959C122.83 15.8967 123.551 15.5738 124.097 14.9311L124.03 14.8585L124.096 14.9328C124.582 14.3893 124.823 13.6552 124.823 12.7557H124.729H124.729ZM129.054 10.1241H126.49V12.1216H128.802V12.8786H126.49V14.8762H129.054V15.6501H125.767V9.35015H129.054V10.1241Z" fill="white"/>
<path d="M129.054 10.1241V10.0191H126.396V12.2266H128.708V12.7733L126.396 12.7736V14.9811H128.96V15.5451H125.861V9.45511H128.96V10.1241H129.054V10.0191V10.1241H129.148V9.24512H125.673V15.7551H129.148V14.7712H126.584V12.9836H128.896V12.0166H126.584V10.2291H129.148V10.1241H129.054ZM132.105 15.6502H131.381V10.124H129.808V9.35007H133.678V10.124H132.105V15.6501" fill="white"/>
<path d="M132.105 15.6502V15.5451H131.475V10.0191H129.903V9.45516H133.584V10.0191H132.011V15.6501H132.105V15.5451V15.6501H132.199V10.2291H133.772V9.24512H129.715V10.229H131.287V15.7551H132.199V15.6501H132.105V15.6502ZM136.477 15.6502V9.35007H137.201V15.6501H136.477" fill="white"/>
<path d="M136.477 15.6502H136.571V9.45511H137.107V15.5451H136.477V15.6501H136.571H136.477V15.7551H137.294V9.24512H136.384V15.7551H136.477V15.6501V15.6502ZM140.41 15.6502H139.686V10.124H138.113V9.35007H141.983V10.124H140.41V15.6501" fill="white"/>
<path d="M140.41 15.6502V15.5451H139.78V10.0191H138.207V9.45517H141.889V10.0191H140.316V15.6501H140.41V15.5451V15.6501H140.504V10.2291H142.077V9.24513H138.02V10.229H139.592V15.7551H140.504V15.6501H140.41V15.6502ZM145.713 14.3086C146.13 14.7806 146.64 15.0164 147.243 15.0164C147.846 15.0164 148.356 14.7806 148.772 14.3086C149.189 13.8365 149.398 13.233 149.398 12.5001C149.398 11.7673 149.189 11.1638 148.772 10.6917C148.356 10.2196 147.846 9.98379 147.243 9.98379C146.64 9.98379 146.13 10.2196 145.713 10.6917C145.297 11.1638 145.088 11.7672 145.088 12.5001C145.088 13.233 145.297 13.8365 145.713 14.3086ZM149.307 14.836C148.754 15.4729 148.065 15.7908 147.243 15.7908C146.419 15.7908 145.731 15.4729 145.179 14.836C144.625 14.1997 144.349 13.421 144.349 12.5001C144.349 11.5793 144.625 10.8004 145.179 10.1643C145.731 9.52723 146.419 9.20898 147.243 9.20898C148.061 9.20898 148.748 9.52893 149.304 10.1684C149.859 10.8078 150.137 11.585 150.137 12.5001C150.137 13.421 149.86 14.1997 149.307 14.836Z" fill="white"/>
<path d="M145.713 14.3086L145.646 14.3824C146.078 14.8734 146.618 15.1227 147.243 15.1215C147.867 15.1227 148.407 14.8734 148.839 14.3824C149.274 13.891 149.493 13.2552 149.492 12.5001C149.493 11.7451 149.274 11.1093 148.839 10.6179C148.407 10.1269 147.867 9.87758 147.243 9.87881C146.618 9.87758 146.078 10.1269 145.646 10.6179C145.212 11.1093 144.993 11.7451 144.994 12.5001C144.993 13.2552 145.212 13.891 145.646 14.3824L145.713 14.3086L145.78 14.2347C145.382 13.7815 145.182 13.2113 145.182 12.5001C145.182 11.789 145.382 11.2189 145.78 10.7655C146.181 10.3124 146.661 10.0901 147.243 10.0889C147.824 10.0901 148.305 10.3124 148.705 10.7655C149.104 11.2189 149.303 11.789 149.304 12.5001C149.303 13.2113 149.104 13.7815 148.705 14.2347C148.305 14.6879 147.824 14.9102 147.243 14.9114C146.661 14.9102 146.181 14.6879 145.78 14.2347L145.713 14.3086ZM149.307 14.836L149.24 14.763C148.702 15.3799 148.044 15.6846 147.243 15.6859C146.441 15.6846 145.783 15.3799 145.246 14.763L145.243 14.7597L145.246 14.763C144.709 14.144 144.444 13.3976 144.443 12.5001C144.444 11.6027 144.709 10.8562 145.246 10.2373C145.783 9.6204 146.441 9.31527 147.243 9.31405C148.039 9.31527 148.695 9.62168 149.236 10.2418C149.775 10.8636 150.042 11.6089 150.043 12.5001C150.042 13.3976 149.776 14.144 149.24 14.763L149.307 14.836L149.375 14.9089C149.943 14.2552 150.231 13.4443 150.231 12.5001C150.231 11.5614 149.942 10.7521 149.371 10.0955C148.799 9.43622 148.083 9.10287 147.243 9.10401C146.398 9.10287 145.68 9.43466 145.111 10.0914V10.0909C144.541 10.7451 144.255 11.556 144.255 12.5001C144.255 13.4443 144.541 14.2552 145.111 14.9094L145.114 14.9123L145.111 14.9089C145.68 15.5656 146.398 15.8967 147.243 15.8959C148.087 15.8967 148.805 15.5656 149.375 14.9089L149.307 14.836ZM151.152 15.6502V9.3501H152.033L154.769 14.2511H154.8L154.769 13.037V9.3501H155.493V15.6501H154.738L151.875 10.5116H151.844L151.875 11.7261V15.6501H151.152" fill="white"/>
<path d="M151.152 15.6502H151.246V9.45511H151.98L154.717 14.3561H154.897L154.863 13.0354V9.45516H155.399V15.5451H154.79L151.927 10.4066H151.747L151.781 11.7279V15.5451H151.152V15.6501H151.246H151.152V15.7551H151.969V11.7245L151.938 10.5088L151.844 10.5116V10.6166H151.875V10.5116L151.795 10.5675L154.686 15.7551H155.587V9.24512H154.675V13.0382L154.706 14.2539L154.8 14.2511V14.1461H154.769V14.2511L154.849 14.1953L152.085 9.24512H151.058V15.7551H151.152V15.6501L151.152 15.6502ZM180.582 33.5001H182.333V20.3739H180.582L180.582 33.5001ZM196.354 25.1023L194.347 30.7931H194.287L192.203 25.1022H190.317L193.441 33.0563L191.66 37.4807H193.487L198.301 25.1022L196.354 25.1023ZM186.424 32.0093C185.849 32.0093 185.05 31.6885 185.05 30.8944C185.05 29.8813 186.046 29.4929 186.906 29.4929C187.676 29.4929 188.038 29.6787 188.506 29.9323C188.37 31.1479 187.434 32.0093 186.424 32.0093ZM186.635 24.8151C185.367 24.8151 184.054 25.4401 183.511 26.8249L185.065 27.5508C185.397 26.8249 186.015 26.5882 186.665 26.5882C187.57 26.5882 188.491 27.1964 188.506 28.2772V28.4122C188.189 28.2095 187.51 27.9056 186.68 27.9056C185.005 27.9056 183.299 28.9355 183.299 30.8608C183.299 32.6171 184.673 33.7487 186.212 33.7487C187.389 33.7487 188.038 33.1576 188.446 32.4653H188.506V33.4784H190.196V28.4457C190.196 26.1157 188.642 24.8151 186.635 24.8151ZM175.813 26.7001H173.322V22.2008H175.813C177.122 22.2008 177.865 23.4135 177.865 24.4504C177.865 25.4676 177.122 26.7001 175.813 26.7001ZM175.768 20.3739H171.572V33.5001H173.322V28.527H175.768C177.708 28.527 179.616 26.9548 179.616 24.4504C179.616 21.946 177.708 20.3739 175.768 20.3739ZM152.888 32.0117C151.678 32.0117 150.665 30.8784 150.665 29.3219C150.665 27.749 151.678 26.5985 152.888 26.5985C154.082 26.5985 155.019 27.7489 155.019 29.3219C155.019 30.8784 154.082 32.0117 152.888 32.0117H152.888ZM154.898 25.8372H154.838C154.445 25.313 153.689 24.8393 152.736 24.8393C150.741 24.8393 148.912 26.8015 148.912 29.3219C148.912 31.8255 150.741 33.7708 152.736 33.7708C153.689 33.7708 154.445 33.2971 154.838 32.7561H154.898V33.3988C154.898 35.1076 154.082 36.021 152.767 36.021C151.693 36.021 151.028 35.158 150.756 34.4307L149.229 35.1412C149.667 36.3253 150.832 37.7802 152.767 37.7802C154.823 37.7802 156.562 36.4266 156.562 33.1281V25.11H154.898V25.8372ZM157.771 33.5001H159.525V20.3734H157.771V33.5001ZM162.11 29.1697C162.065 27.4441 163.304 26.5648 164.196 26.5648C164.892 26.5648 165.482 26.9536 165.678 27.5123L162.11 29.1697ZM167.553 27.6812C167.22 26.6829 166.207 24.8393 164.136 24.8393C162.08 24.8393 160.371 26.6493 160.371 29.3051C160.371 31.8087 162.065 33.7708 164.332 33.7708C166.162 33.7708 167.22 32.519 167.659 31.7918L166.298 30.7766C165.845 31.5211 165.224 32.0117 164.332 32.0117C163.44 32.0117 162.806 31.5548 162.397 30.6585L167.734 28.1886L167.553 27.6812ZM125.034 26.2096V28.1041H129.086C128.965 29.1697 128.647 29.9478 128.163 30.4891C127.574 31.1491 126.652 31.8763 125.034 31.8763C122.539 31.8763 120.589 29.6266 120.589 26.8354C120.589 24.0444 122.539 21.7943 125.034 21.7943C126.38 21.7943 127.362 22.3865 128.088 23.1477L129.282 21.8115C128.269 20.7286 126.924 19.8998 125.034 19.8998C121.617 19.8998 118.745 23.0124 118.745 26.8354C118.745 30.6585 121.617 33.7708 125.034 33.7708C126.878 33.7708 128.269 33.0945 129.358 31.8255C130.476 30.5737 130.824 28.8145 130.824 27.3937C130.824 26.9536 130.794 26.548 130.733 26.2096H125.034ZM135.431 32.0117C134.221 32.0117 133.178 30.8952 133.178 29.3051C133.178 27.698 134.221 26.5985 135.431 26.5985C136.64 26.5985 137.683 27.698 137.683 29.3051C137.683 30.8952 136.64 32.0117 135.431 32.0117ZM135.431 24.8393C133.223 24.8393 131.424 26.7169 131.424 29.3051C131.424 31.8763 133.223 33.7708 135.431 33.7708C137.638 33.7708 139.437 31.8763 139.437 29.3051C139.437 26.7169 137.638 24.8393 135.431 24.8393ZM144.171 32.0117C142.961 32.0117 141.918 30.8952 141.918 29.3051C141.918 27.698 142.961 26.5985 144.171 26.5985C145.38 26.5985 146.423 27.698 146.423 29.3051C146.423 30.8952 145.38 32.0117 144.171 32.0117H144.171ZM144.171 24.8393C141.963 24.8393 140.164 26.7169 140.164 29.3051C140.164 31.8763 141.963 33.7708 144.171 33.7708C146.378 33.7708 148.177 31.8763 148.177 29.3051C148.177 26.7169 146.378 24.8393 144.171 24.8393H144.171Z" fill="white"/>
<path d="M90.0914 9.99173C89.7764 10.3096 89.5884 10.8399 89.5884 11.5438V11.3847V34.6118V34.4588C89.5884 35.1089 89.7497 35.6109 90.0227 35.9342L90.0924 36.0088V36.0092C90.3135 36.2323 90.5969 36.3508 90.9217 36.3504C91.2391 36.3504 91.5962 36.2372 91.973 35.9982L105.595 27.3385L110.273 24.3636C110.868 23.9859 111.201 23.4986 111.257 23.0023V23.0003C111.201 22.5028 110.868 22.0159 110.274 21.6382L105.594 18.6637L91.9731 10.004C91.5954 9.76451 91.2381 9.65088 90.9198 9.65088C90.5954 9.65088 90.3124 9.76899 90.0914 9.99173H90.0914Z" fill="#00C1FF"/>
<path d="M90.0925 36.0088L90.0227 35.9341C89.7497 35.6109 89.5884 35.1088 89.5884 34.4588V34.6118V11.3904V11.5438C89.5884 10.8399 89.7764 10.3096 90.0914 9.9917L101.718 23.0007L90.0925 36.0088Z" fill="url(#paint0_linear_26_39)"/>
<path d="M105.594 27.3389L101.718 23.0011L105.594 18.6641L110.273 21.6385C110.868 22.0163 111.201 22.5032 111.257 23.0007V23.0027C111.201 23.499 110.868 23.9863 110.273 24.364L105.594 27.3388" fill="url(#paint1_linear_26_39)"/>
<path d="M90.9216 36.3508C90.5969 36.3512 90.3134 36.2326 90.0925 36.0095V36.0092L101.718 23.0011L105.595 27.3388L91.9729 35.9985C91.5961 36.2376 91.239 36.3508 90.9216 36.3508Z" fill="url(#paint2_linear_26_39)"/>
<path d="M101.718 23.0015L90.0912 9.99249C90.3122 9.76976 90.5952 9.65164 90.9196 9.65164C91.2378 9.65164 91.5952 9.76522 91.9728 10.0048L105.594 18.6644L101.718 23.0015" fill="url(#paint3_linear_26_39)"/>
<path d="M90.9221 36.5051C90.5974 36.5051 90.3136 36.3866 90.0925 36.1635L90.0922 36.1639C90.0913 36.1628 90.0903 36.1619 90.0893 36.161L90.0288 36.095C90.0269 36.0929 90.0251 36.0905 90.0229 36.0881L90.0926 36.0101C90.3136 36.2332 90.597 36.3517 90.9218 36.3513C91.2392 36.3513 91.5963 36.2381 91.9731 35.999L105.595 27.3394L105.682 27.437L105.594 27.4932L91.9731 36.1524C91.6296 36.3702 91.303 36.4838 91.0079 36.5027C90.9793 36.5043 90.9507 36.5051 90.9221 36.5051" fill="url(#paint4_linear_26_39)"/>
<path d="M90.0227 36.0872C89.7497 35.7639 89.5884 35.2623 89.5884 34.6118V34.4588C89.5884 35.1089 89.7497 35.6109 90.0227 35.9342L90.0924 36.0088L90.0227 36.0872Z" fill="url(#paint5_linear_26_39)"/>
<path d="M105.682 27.4357L105.594 27.3381L110.273 24.3632C110.868 23.9856 111.201 23.4982 111.257 23.0019C111.257 23.1841 111.221 23.3662 111.148 23.5434C111.003 23.9006 110.711 24.2382 110.273 24.5166L105.682 27.4358" fill="url(#paint6_linear_26_39)"/>
<path d="M111.257 23.001C111.201 22.5035 110.868 22.0166 110.273 21.6388L105.594 18.6644L105.681 18.5667H105.682L110.273 21.4858C110.929 21.9025 111.257 22.4517 111.257 23.001Z" fill="url(#paint7_linear_26_39)"/>
<path d="M89.5884 11.5439V11.3835C89.5884 11.3256 89.5898 11.2691 89.5925 11.2141V11.2116C89.5925 11.2109 89.5925 11.2101 89.5927 11.2092V11.203C89.621 10.6431 89.7764 10.2064 90.0227 9.91477L90.0914 9.99183C89.7764 10.3098 89.5884 10.8401 89.5884 11.5439Z" fill="url(#paint8_linear_26_39)"/>
<path d="M105.594 18.6638L91.9728 10.0041C91.5952 9.76458 91.2378 9.651 90.9196 9.651C90.5952 9.651 90.3122 9.76911 90.0912 9.99185L90.0226 9.91474C90.044 9.88936 90.0663 9.86488 90.0893 9.84136C90.09 9.84051 90.0912 9.83966 90.0919 9.83886C90.3111 9.61782 90.5912 9.49971 90.9127 9.49758H90.9196C91.2378 9.49758 91.5952 9.61121 91.9728 9.8508L105.682 18.5658L105.681 18.5661L105.594 18.6638Z" fill="url(#paint9_linear_26_39)"/>
<defs>
<filter id="filter0_dddddd_26_39" x="0.229614" y="0.703704" width="286.689" height="223.296" filterUnits="userSpaceOnUse" color-interpolation-filters="sRGB">
<feFlood flood-opacity="0" result="BackgroundImageFix"/>
<feColorMatrix in="SourceAlpha" type="matrix" values="0 0 0 0 0 0 0 0 0 0 0 0 0 0 0 0 0 0 127 0" result="hardAlpha"/>
<feOffset dy="1.85185"/>
<feGaussianBlur stdDeviation="1.57407"/>
<feColorMatrix type="matrix" values="0 0 0 0 0.219608 0 0 0 0 0.219608 0 0 0 0 0.219608 0 0 0 0.0240741 0"/>
<feBlend mode="normal" in2="BackgroundImageFix" result="effect1_dropShadow_26_39"/>
<feColorMatrix in="SourceAlpha" type="matrix" values="0 0 0 0 0 0 0 0 0 0 0 0 0 0 0 0 0 0 127 0" result="hardAlpha"/>
<feOffset dy="8.14815"/>
<feGaussianBlur stdDeviation="3.25926"/>
<feColorMatrix type="matrix" values="0 0 0 0 0.219608 0 0 0 0 0.219608 0 0 0 0 0.219608 0 0 0 0.0392593 0"/>
<feBlend mode="normal" in2="effect1_dropShadow_26_39" result="effect2_dropShadow_26_39"/>
<feColorMatrix in="SourceAlpha" type="matrix" values="0 0 0 0 0 0 0 0 0 0 0 0 0 0 0 0 0 0 127 0" result="hardAlpha"/>
<feOffset dy="20"/>
<feGaussianBlur stdDeviation="6.5"/>
<feColorMatrix type="matrix" values="0 0 0 0 0.219608 0 0 0 0 0.219608 0 0 0 0 0.219608 0 0 0 0.05 0"/>
<feBlend mode="normal" in2="effect2_dropShadow_26_39" result="effect3_dropShadow_26_39"/>
<feColorMatrix in="SourceAlpha" type="matrix" values="0 0 0 0 0 0 0 0 0 0 0 0 0 0 0 0 0 0 127 0" result="hardAlpha"/>
<feOffset dy="38.5185"/>
<feGaussianBlur stdDeviation="12.7407"/>
<feColorMatrix type="matrix" values="0 0 0 0 0.219608 0 0 0 0 0.219608 0 0 0 0 0.219608 0 0 0 0.0607407 0"/>
<feBlend mode="normal" in2="effect3_dropShadow_26_39" result="effect4_dropShadow_26_39"/>
<feColorMatrix in="SourceAlpha" type="matrix" values="0 0 0 0 0 0 0 0 0 0 0 0 0 0 0 0 0 0 127 0" result="hardAlpha"/>
<feOffset dy="64.8148"/>
<feGaussianBlur stdDeviation="23.4259"/>
<feColorMatrix type="matrix" values="0 0 0 0 0.219608 0 0 0 0 0.219608 0 0 0 0 0.219608 0 0 0 0.0759259 0"/>
<feBlend mode="normal" in2="effect4_dropShadow_26_39" result="effect5_dropShadow_26_39"/>
<feColorMatrix in="SourceAlpha" type="matrix" values="0 0 0 0 0 0 0 0 0 0 0 0 0 0 0 0 0 0 127 0" result="hardAlpha"/>
<feOffset dy="100"/>
<feGaussianBlur stdDeviation="40"/>
<feColorMatrix type="matrix" values="0 0 0 0 0.219608 0 0 0 0 0.219608 0 0 0 0 0.219608 0 0 0 0.1 0"/>
<feBlend mode="normal" in2="effect5_dropShadow_26_39" result="effect6_dropShadow_26_39"/>
<feBlend mode="normal" in="SourceGraphic" in2="effect6_dropShadow_26_39" result="shape"/>
</filter>
<linearGradient id="paint0_linear_26_39" x1="97.0188" y1="11.145" x2="85.8921" y2="21.1215" gradientUnits="userSpaceOnUse">
<stop stop-color="#00A0FF"/>
<stop offset="0.00657" stop-color="#00A1FF"/>
<stop offset="0.2601" stop-color="#00BEFF"/>
<stop offset="0.5122" stop-color="#00D2FF"/>
<stop offset="0.7604" stop-color="#00DFFF"/>
<stop offset="1" stop-color="#00E3FF"/>
</linearGradient>
<linearGradient id="paint1_linear_26_39" x1="111.981" y1="22.9261" x2="89.2736" y2="22.9261" gradientUnits="userSpaceOnUse">
<stop stop-color="#FFE000"/>
<stop offset="0.4087" stop-color="#FFBD00"/>
<stop offset="0.7754" stop-color="#FFA500"/>
<stop offset="1" stop-color="#FF9C00"/>
</linearGradient>
<linearGradient id="paint2_linear_26_39" x1="103.537" y1="27.1252" x2="84.6968" y2="43.8943" gradientUnits="userSpaceOnUse">
<stop stop-color="#FF3A44"/>
<stop offset="1" stop-color="#C31162"/>
</linearGradient>
<linearGradient id="paint3_linear_26_39" x1="87.0946" y1="8.06385" x2="95.4925" y2="15.5502" gradientUnits="userSpaceOnUse">
<stop stop-color="#32A071"/>
<stop offset="0.0685" stop-color="#2DA771"/>
<stop offset="0.4762" stop-color="#15CF74"/>
<stop offset="0.8009" stop-color="#06E775"/>
<stop offset="1" stop-color="#00F076"/>
</linearGradient>
<linearGradient id="paint4_linear_26_39" x1="103.528" y1="30.1347" x2="88.4282" y2="43.674" gradientUnits="userSpaceOnUse">
<stop stop-color="#CC2E36"/>
<stop offset="1" stop-color="#9C0E4E"/>
</linearGradient>
<linearGradient id="paint5_linear_26_39" x1="91.1373" y1="11.145" x2="81.3348" y2="19.9344" gradientUnits="userSpaceOnUse">
<stop stop-color="#008DE0"/>
<stop offset="0.00657" stop-color="#008DE0"/>
<stop offset="0.2601" stop-color="#00A7E0"/>
<stop offset="0.5122" stop-color="#00B8E0"/>
<stop offset="0.7604" stop-color="#00C4E0"/>
<stop offset="1" stop-color="#00C7E0"/>
</linearGradient>
<linearGradient id="paint6_linear_26_39" x1="111.981" y1="23.001" x2="89.2736" y2="23.001" gradientUnits="userSpaceOnUse">
<stop stop-color="#E0C500"/>
<stop offset="0.4087" stop-color="#E0A600"/>
<stop offset="0.7754" stop-color="#E09100"/>
<stop offset="1" stop-color="#E08900"/>
</linearGradient>
<linearGradient id="paint7_linear_26_39" x1="111.981" y1="23.002" x2="89.2737" y2="23.002" gradientUnits="userSpaceOnUse">
<stop stop-color="#FFE840"/>
<stop offset="0.4087" stop-color="#FFCE40"/>
<stop offset="0.7754" stop-color="#FFBC40"/>
<stop offset="1" stop-color="#FFB540"/>
</linearGradient>
<linearGradient id="paint8_linear_26_39" x1="91.1278" y1="11.163" x2="81.7321" y2="19.2225" gradientUnits="userSpaceOnUse">
<stop stop-color="#40B8FF"/>
<stop offset="0.00657" stop-color="#40B9FF"/>
<stop offset="0.2601" stop-color="#40CEFF"/>
<stop offset="0.5122" stop-color="#40DDFF"/>
<stop offset="0.7604" stop-color="#40E7FF"/>
<stop offset="1" stop-color="#40EAFF"/>
</linearGradient>
<linearGradient id="paint9_linear_26_39" x1="87.0776" y1="10.8144" x2="93.8205" y2="16.8603" gradientUnits="userSpaceOnUse">
<stop stop-color="#65B895"/>
<stop offset="0.0685" stop-color="#62BD95"/>
<stop offset="0.4762" stop-color="#50DB97"/>
<stop offset="0.8009" stop-color="#44ED98"/>
<stop offset="1" stop-color="#40F498"/>
</linearGradient>
</defs>
</svg>
