<svg width="126" height="41" viewBox="0 0 126 41" fill="none" xmlns="http://www.w3.org/2000/svg">
<path d="M120.812 40.7582H4.59837C2.0693 40.7582 0 38.4656 0 35.6635V5.0948C0 2.29265 2.06925 0 4.59837 0H120.812C123.341 0 125.41 2.29265 125.41 5.0948V35.6634C125.41 38.4656 123.341 40.7582 120.812 40.7582Z" fill="black"/>
<path d="M43.8473 10.1287C43.8473 11.0085 43.6144 11.709 43.1481 12.2316C42.6184 12.853 41.9281 13.1639 41.0795 13.1639C40.2668 13.1639 39.5758 12.8489 39.0076 12.218C38.4384 11.5876 38.1543 10.8059 38.1543 9.87317C38.1543 8.94004 38.4384 8.15878 39.0076 7.52785C39.5758 6.89749 40.2668 6.58203 41.0795 6.58203C41.4828 6.58203 41.8688 6.67028 42.2354 6.84625C42.6019 7.02264 42.8959 7.25679 43.1159 7.55003L42.621 8.10413C42.2482 7.60581 41.735 7.35684 41.0795 7.35684C40.4868 7.35684 39.9743 7.58986 39.5418 8.05619C39.1092 8.52298 38.8929 9.12833 38.8929 9.87317C38.8929 10.6181 39.1092 11.2234 39.5418 11.6902C39.9743 12.1565 40.4868 12.3895 41.0795 12.3895C41.7083 12.3895 42.2325 12.1553 42.6522 11.6861C42.9246 11.3805 43.0821 10.9556 43.1243 10.41H41.0795V9.65331H43.808C43.8343 9.81786 43.8472 9.97576 43.8472 10.1287" fill="white"/>
<path d="M43.8473 10.1288H43.7534C43.7527 10.9884 43.5283 11.6561 43.0818 12.1573L43.0808 12.1582L43.0804 12.159C42.5675 12.759 41.9083 13.0576 41.0795 13.0589C40.2885 13.0576 39.6264 12.7558 39.0736 12.1438C38.522 11.5306 38.2492 10.7821 38.2482 9.87319C38.2492 8.96389 38.522 8.21575 39.0736 7.60299C39.6264 6.99062 40.2885 6.68832 41.0795 6.68705C41.4707 6.68705 41.8431 6.77246 42.1983 6.94262C42.5539 7.11411 42.8348 7.33883 43.044 7.61781L43.1159 7.55005L43.0496 7.47582L42.5546 8.0303L42.621 8.10415L42.6932 8.03695C42.3031 7.51395 41.7556 7.2503 41.0795 7.25186C40.4648 7.25101 39.9241 7.49677 39.4769 7.98079C39.0253 8.46637 38.7984 9.10579 38.7991 9.87319C38.7984 10.6406 39.0253 11.28 39.4769 11.7656C39.9241 12.2497 40.4648 12.4954 41.0795 12.4945C41.7291 12.4958 42.2827 12.2492 42.7185 11.7603C43.0096 11.4338 43.1746 10.9815 43.2178 10.4191L43.2266 10.3051H41.1734V9.75833H43.808V9.65333L43.7156 9.67178C43.7413 9.831 43.7534 9.98229 43.7534 10.1288H43.9411C43.9411 9.96917 43.9279 9.80514 43.9004 9.63455L43.8865 9.54834H40.9857V10.5151H43.1243V10.4101L43.0309 10.401C42.9895 10.9294 42.8391 11.3272 42.5858 11.6119C42.1826 12.0614 41.6877 12.2833 41.0795 12.2845C40.5088 12.2837 40.0246 12.0638 39.607 11.6147C39.1936 11.1672 38.9879 10.5959 38.9868 9.87319C38.9879 9.15048 39.1936 8.57916 39.607 8.13166C40.0246 7.68256 40.5088 7.4627 41.0795 7.46185C41.7141 7.46355 42.1933 7.69813 42.5492 8.17186L42.6152 8.25964L43.1823 7.62432L43.2431 7.55628L43.1877 7.48276C42.9572 7.17522 42.65 6.93111 42.2724 6.7499C41.8941 6.56813 41.4949 6.47705 41.0795 6.47705C40.2453 6.47625 39.5253 6.80436 38.9413 7.45369C38.3552 8.10174 38.0597 8.91633 38.0605 9.87319C38.0597 10.8296 38.3552 11.6447 38.9417 12.2931C39.5253 12.942 40.2453 13.2697 41.0795 13.2689C41.9484 13.2697 42.6691 12.9469 43.216 12.3042L43.1481 12.2316L43.2145 12.3059C43.7006 11.7624 43.9418 11.0282 43.9411 10.1288H43.8473H43.8473ZM48.1728 7.49715H45.6086V9.49468H47.921V10.2517H45.6086V12.2492H48.1728V13.0232H44.8857V6.72319H48.1728V7.49715" fill="white"/>
<path d="M48.1726 7.49712V7.39212H45.5146V9.59965H47.827V10.1464L45.5146 10.1467V12.3542H48.0788V12.9182H44.9794V6.82816H48.0788V7.49712H48.1726V7.39212V7.49712H48.2665V6.61816H44.7917V13.1281H48.2665V12.1442H45.7023V10.3567H48.0147V9.38965H45.7023V7.60211H48.2665V7.49712H48.1726V7.49712ZM51.2236 13.0232H50.4997V7.49707H48.927V6.72311H52.7963V7.49707H51.2236V13.0231" fill="white"/>
<path d="M51.2238 13.0232V12.9182H50.5937V7.39212H49.0211V6.8282H52.7026V7.39212H51.13V13.0232H51.2238V12.9182V13.0232H51.3177V7.60211H52.8903V6.61816H48.8334V7.60207H50.406V13.1281H51.3177V13.0231H51.2238V13.0232ZM55.596 13.0232V6.72311H56.3193V13.0231H55.596" fill="white"/>
<path d="M55.5959 13.0232H55.6898V6.82816H56.2253V12.9182H55.5959V13.0232H55.6898H55.5959V13.1281H56.413V6.61816H55.5021V13.1281H55.5959V13.0232V13.0232ZM59.5285 13.0232H58.8045V7.49707H57.232V6.72311H61.1011V7.49707H59.5285V13.0231" fill="white"/>
<path d="M59.5287 13.0232V12.9182H58.8985V7.39213H57.326V6.82822H61.0074V7.39213H59.4348V13.0232H59.5287V12.9182V13.0232H59.6225V7.60213H61.1951V6.61818H57.1383V7.60208H58.7108V13.1281H59.6225V13.0231H59.5287V13.0232ZM64.8316 11.6816C65.2483 12.1537 65.7583 12.3895 66.3613 12.3895C66.9644 12.3895 67.4746 12.1537 67.8907 11.6816C68.3078 11.2095 68.5168 10.6061 68.5168 9.87317C68.5168 9.14032 68.3078 8.53686 67.8907 8.06477C67.4746 7.59269 66.9644 7.35684 66.3613 7.35684C65.7583 7.35684 65.2483 7.59269 64.8316 8.06477C64.4155 8.53686 64.2066 9.14027 64.2066 9.87317C64.2066 10.6061 64.4155 11.2095 64.8316 11.6816ZM68.4259 12.209C67.8723 12.8459 67.1839 13.1639 66.3613 13.1639C65.538 13.1639 64.8498 12.8459 64.2975 12.209C63.7436 11.5728 63.4679 10.794 63.4679 9.87317C63.4679 8.95231 63.7436 8.1734 64.2975 7.53734C64.8499 6.90028 65.538 6.58203 66.3613 6.58203C67.1795 6.58203 67.8661 6.90198 68.4222 7.54144C68.9776 8.18086 69.2554 8.95807 69.2554 9.87317C69.2554 10.794 68.9782 11.5728 68.4259 12.209Z" fill="white"/>
<path d="M64.8314 11.6816L64.7646 11.7554C65.1969 12.2464 65.7361 12.4958 66.3611 12.4945C66.9857 12.4958 67.5257 12.2464 67.9572 11.7554C68.3923 11.264 68.6111 10.6283 68.6104 9.87319C68.6111 9.11816 68.3923 8.48237 67.9572 7.99094C67.5257 7.49998 66.9857 7.25063 66.3611 7.25186C65.7361 7.25063 65.1969 7.49998 64.7646 7.99094C64.3306 8.48237 64.1114 9.11816 64.1125 9.87319C64.1114 10.6282 64.3306 11.264 64.7646 11.7554L64.8314 11.6816L64.8981 11.6078C64.5 11.1545 64.301 10.5844 64.3002 9.87319C64.301 9.16204 64.5 8.5919 64.8981 8.1386C65.2998 7.68544 65.7797 7.46313 66.3611 7.4619C66.9421 7.46313 67.423 7.68544 67.8238 8.1386C68.2226 8.5919 68.4216 9.16204 68.4224 9.87319C68.4216 10.5843 68.2226 11.1545 67.8238 11.6078C67.423 12.061 66.9421 12.2833 66.3611 12.2845C65.7797 12.2833 65.2998 12.061 64.8981 11.6078L64.8314 11.6816ZM68.4257 12.209L68.3586 12.1361C67.8205 12.7529 67.1624 13.0577 66.3611 13.0589C65.5594 13.0576 64.9014 12.7529 64.3643 12.1361L64.3618 12.1328L64.3643 12.1361C63.8273 11.5171 63.5624 10.7706 63.5616 9.87319C63.5624 8.97574 63.8273 8.22929 64.3643 7.61036C64.9014 6.99345 65.5594 6.68832 66.3611 6.68709C67.1573 6.68832 67.8138 6.99472 68.3549 7.61484C68.8938 8.23666 69.1603 8.98192 69.1614 9.87319C69.1603 10.7706 68.8945 11.5171 68.3586 12.1361L68.4257 12.209L68.4932 12.282C69.062 11.6283 69.3497 10.8174 69.3491 9.87319C69.3498 8.9344 69.0609 8.12515 68.4894 7.46851C67.9176 6.80927 67.2013 6.47592 66.3611 6.47705C65.5165 6.47592 64.7981 6.80771 64.2298 7.4644V7.46393C63.6598 8.11812 63.3731 8.92902 63.3739 9.87319C63.3731 10.8174 63.6598 11.6283 64.2298 12.2824L64.2324 12.2854L64.2298 12.282C64.7981 12.9387 65.5165 13.2698 66.3611 13.2689C67.2053 13.2698 67.9238 12.9387 68.4932 12.282L68.4257 12.209V12.209ZM70.2706 13.0232V6.72315H71.1512L73.8876 11.6241H73.9188L73.8876 10.41V6.72315H74.6116V13.0231H73.8565L70.9935 7.88467H70.9623L70.9935 9.09919V13.0231H70.2706" fill="white"/>
<path d="M70.2705 13.0232H70.3644V6.82816H71.099L73.8355 11.7291H74.0151L73.9814 10.4085V6.8282H74.5177V12.9182H73.9085L71.0455 7.77969H70.8659L70.8996 9.1009V12.9182H70.2706V13.0232H70.3644H70.2706V13.1281H71.0873V9.09755L71.0561 7.88185L70.9623 7.88468V7.98968H70.9934V7.88468L70.9139 7.94051L73.8043 13.1281H74.7054V6.61816H73.7937V10.4113L73.8249 11.627L73.9187 11.6241V11.5191H73.8876V11.6241L73.9671 11.5684L71.2031 6.61816H70.1767V13.1281H70.2706V13.0232L70.2705 13.0232ZM99.7004 30.8732H101.452V17.7469H99.7004L99.7004 30.8732ZM115.473 22.4753L113.465 28.1662H113.405L111.322 22.4753H109.436L112.56 30.4293L110.779 34.8537H112.606L117.42 22.4753L115.473 22.4753ZM105.542 29.3823C104.968 29.3823 104.168 29.0615 104.168 28.2675C104.168 27.2543 105.165 26.866 106.024 26.866C106.795 26.866 107.156 27.0517 107.625 27.3053C107.488 28.5209 106.553 29.3823 105.542 29.3823V29.3823ZM105.753 22.1881C104.485 22.1881 103.173 22.8131 102.629 24.1979L104.183 24.9239C104.515 24.1979 105.134 23.9612 105.783 23.9612C106.689 23.9612 107.61 24.5695 107.625 25.6503V25.7852C107.307 25.5826 106.629 25.2786 105.798 25.2786C104.123 25.2786 102.417 26.3085 102.417 28.2338C102.417 29.9901 103.791 31.1217 105.33 31.1217C106.508 31.1217 107.156 30.5307 107.564 29.8384H107.625V30.8515H109.315V25.8188C109.315 23.4888 107.761 22.1881 105.753 22.1881V22.1881ZM94.9313 24.0731H92.4407V19.5738H94.9313C96.2404 19.5738 96.9837 20.7866 96.9837 21.8234C96.9837 22.8407 96.2404 24.0731 94.9313 24.0731ZM94.8863 17.7469H90.6905V30.8732H92.4406V25.9H94.8863C96.8269 25.9 98.7347 24.3279 98.7347 21.8234C98.7347 19.3191 96.8269 17.7469 94.8863 17.7469V17.7469ZM72.0063 29.3847C70.7965 29.3847 69.7837 28.2514 69.7837 26.6949C69.7837 25.122 70.7965 23.9715 72.0063 23.9715C73.2006 23.9715 74.1379 25.122 74.1379 26.6949C74.1379 28.2514 73.2006 29.3847 72.0063 29.3847H72.0063ZM74.017 23.2103H73.9565C73.5635 22.686 72.8072 22.2124 71.8549 22.2124C69.8592 22.2124 68.0301 24.1745 68.0301 26.6949C68.0301 29.1985 69.8592 31.1439 71.8549 31.1439C72.8072 31.1439 73.5635 30.6701 73.9565 30.1291H74.017V30.7718C74.017 32.4806 73.2006 33.394 71.8853 33.394C70.8119 33.394 70.1467 32.531 69.8742 31.8038L68.3476 32.5142C68.786 33.6983 69.9502 35.1532 71.8853 35.1532C73.9414 35.1532 75.6801 33.7996 75.6801 30.5012V22.483H74.017V23.2103ZM76.8894 30.8732H78.6432V17.7464H76.8894V30.8732ZM81.2285 26.5428C81.1831 24.8172 82.4229 23.9378 83.3148 23.9378C84.0107 23.9378 84.6 24.3266 84.7962 24.8854L81.2285 26.5428ZM86.6712 25.0543C86.339 24.0559 85.3255 22.2124 83.2543 22.2124C81.1982 22.2124 79.4899 24.0223 79.4899 26.6781C79.4899 29.1817 81.1831 31.1439 83.4508 31.1439C85.2804 31.1439 86.339 29.892 86.7772 29.1648L85.4165 28.1497C84.9632 28.8941 84.343 29.3847 83.4508 29.3847C82.5589 29.3847 81.924 28.9278 81.5156 28.0315L86.8523 25.5616L86.6712 25.0543ZM44.1524 23.5826V25.4771H48.2041C48.0832 26.5428 47.7657 27.3208 47.2818 27.8622C46.6924 28.5221 45.7701 29.2494 44.1524 29.2494C41.6578 29.2494 39.7077 26.9996 39.7077 24.2085C39.7077 21.4174 41.6578 19.1674 44.1524 19.1674C45.4981 19.1674 46.4805 19.7596 47.2063 20.5208L48.4006 19.1845C47.3878 18.1017 46.0421 17.2729 44.1524 17.2729C40.7355 17.2729 37.863 20.3855 37.863 24.2085C37.863 28.0315 40.7355 31.1439 44.1524 31.1439C45.997 31.1439 47.3878 30.4676 48.4762 29.1985C49.595 27.9467 49.9429 26.1876 49.9429 24.7668C49.9429 24.3266 49.9127 23.921 49.8519 23.5826H44.1524ZM54.5492 29.3847C53.3395 29.3847 52.2963 28.2682 52.2963 26.6781C52.2963 25.0711 53.3395 23.9715 54.5492 23.9715C55.7585 23.9715 56.8018 25.0711 56.8018 26.6781C56.8018 28.2682 55.7585 29.3847 54.5492 29.3847ZM54.5492 22.2124C52.3417 22.2124 50.5425 24.0899 50.5425 26.6781C50.5425 29.2494 52.3417 31.1439 54.5492 31.1439C56.7564 31.1439 58.5555 29.2494 58.5555 26.6781C58.5555 24.0899 56.7564 22.2124 54.5492 22.2124ZM63.289 29.3847C62.0798 29.3847 61.0364 28.2682 61.0364 26.6781C61.0364 25.0711 62.0798 23.9715 63.2891 23.9715C64.4984 23.9715 65.5417 25.0711 65.5417 26.6781C65.5417 28.2682 64.4984 29.3847 63.2891 29.3847H63.289ZM63.289 22.2124C61.0816 22.2124 59.2828 24.0899 59.2828 26.6781C59.2828 29.2494 61.0816 31.1439 63.2891 31.1439C65.4963 31.1439 67.2955 29.2494 67.2955 26.6781C67.2955 24.0899 65.4963 22.2124 63.2891 22.2124H63.289Z" fill="white"/>
<path d="M9.20988 7.36478C8.89495 7.68269 8.70697 8.21296 8.70697 8.91684V8.75772V31.9849V31.8319C8.70697 32.4819 8.86821 32.9839 9.14128 33.3072L9.21098 33.3819V33.3822C9.432 33.6054 9.71541 33.7239 10.0402 33.7235C10.3576 33.7235 10.7147 33.6103 11.0915 33.3712L24.7131 24.7116L29.392 21.7367C29.9862 21.359 30.3198 20.8717 30.3756 20.3754V20.3733C30.3198 19.8759 29.9863 19.3889 29.3921 19.0112L24.7127 16.0367L11.0916 7.37705C10.7139 7.13756 10.3566 7.02393 10.0384 7.02393C9.71393 7.02393 9.4309 7.14204 9.20997 7.36478H9.20988Z" fill="#00C1FF"/>
<path d="M9.21102 33.3818L9.14128 33.3072C8.86821 32.9839 8.70697 32.4819 8.70697 31.8318V31.9848V8.76344V8.9168C8.70697 8.21292 8.89495 7.68266 9.20988 7.36474L20.8369 20.3737L9.21102 33.3818Z" fill="url(#paint0_linear_5_30)"/>
<path d="M24.7129 24.7119L20.8367 20.3742L24.7126 16.0371L29.3919 19.0116C29.9861 19.3894 30.3197 19.8762 30.3754 20.3737V20.3757C30.3197 20.8721 29.9861 21.3594 29.3919 21.737L24.713 24.7119" fill="url(#paint1_linear_5_30)"/>
<path d="M10.0402 33.7239C9.71539 33.7242 9.43198 33.6057 9.211 33.3826V33.3822L20.8369 20.3741L24.7131 24.7119L11.0915 33.3716C10.7146 33.6107 10.3575 33.7239 10.0402 33.7239Z" fill="url(#paint2_linear_5_30)"/>
<path d="M20.8368 20.3745L9.20972 7.36554C9.43074 7.1428 9.71377 7.02469 10.0382 7.02469C10.3564 7.02469 10.7138 7.13827 11.0914 7.37781L24.7126 16.0375L20.8367 20.3745" fill="url(#paint3_linear_5_30)"/>
<path d="M10.0407 33.8782C9.71589 33.8782 9.4321 33.7596 9.21108 33.5365L9.2107 33.5369C9.20979 33.5359 9.20881 33.5349 9.20778 33.5341L9.14733 33.468C9.14543 33.4659 9.14366 33.4635 9.14142 33.4611L9.21112 33.3831C9.43214 33.6062 9.71551 33.7248 10.0404 33.7243C10.3577 33.7243 10.7148 33.6112 11.0916 33.3721L24.7132 24.7124L24.8005 24.8101L24.7121 24.8662L11.0916 33.5254C10.7482 33.7433 10.4215 33.8568 10.1264 33.8758C10.0979 33.8773 10.0693 33.8781 10.0407 33.8781" fill="url(#paint4_linear_5_30)"/>
<path d="M9.14128 33.4602C8.86821 33.137 8.70697 32.6353 8.70697 31.9849V31.8319C8.70697 32.4819 8.86821 32.9839 9.14128 33.3072L9.21098 33.3819L9.14128 33.4602" fill="url(#paint5_linear_5_30)"/>
<path d="M24.8002 24.8088L24.713 24.7111L29.3919 21.7363C29.9861 21.3586 30.3197 20.8713 30.3755 20.375C30.3755 20.5571 30.3391 20.7392 30.267 20.9165C30.1214 21.2737 29.8297 21.6112 29.3919 21.8897L24.8002 24.8088" fill="url(#paint6_linear_5_30)"/>
<path d="M30.3755 20.374C30.3197 19.8765 29.9861 19.3896 29.3919 19.0119L24.7126 16.0374L24.7999 15.9397H24.8002L29.3919 18.8589C30.047 19.2756 30.3751 19.8247 30.3755 20.374" fill="url(#paint7_linear_5_30)"/>
<path d="M8.70697 8.91699V8.75655C8.70697 8.69869 8.70836 8.64211 8.71103 8.58718V8.58468C8.71103 8.58393 8.71103 8.58313 8.71128 8.58228V8.5761C8.73954 8.01619 8.89495 7.57945 9.14128 7.28782L9.20988 7.36488C8.89495 7.68284 8.70697 8.21311 8.70697 8.91699Z" fill="url(#paint8_linear_5_30)"/>
<path d="M24.7125 16.0369L11.0913 7.37711C10.7137 7.13763 10.3564 7.02404 10.0382 7.02404C9.71373 7.02404 9.43069 7.14216 9.20972 7.36489L9.14111 7.28778C9.16254 7.26241 9.1848 7.23793 9.20786 7.21441C9.20858 7.21356 9.20972 7.21271 9.21044 7.2119C9.42968 6.99087 9.70971 6.87275 10.0312 6.87063H10.0382C10.3564 6.87063 10.7137 6.98426 11.0913 7.22384L24.8002 15.9389L24.7998 15.9392L24.7125 16.0369" fill="url(#paint9_linear_5_30)"/>
<defs>
<linearGradient id="paint0_linear_5_30" x1="16.1373" y1="8.51801" x2="5.01062" y2="18.4946" gradientUnits="userSpaceOnUse">
<stop stop-color="#00A0FF"/>
<stop offset="0.00657" stop-color="#00A1FF"/>
<stop offset="0.2601" stop-color="#00BEFF"/>
<stop offset="0.5122" stop-color="#00D2FF"/>
<stop offset="0.7604" stop-color="#00DFFF"/>
<stop offset="1" stop-color="#00E3FF"/>
</linearGradient>
<linearGradient id="paint1_linear_5_30" x1="31.0994" y1="20.2992" x2="8.39215" y2="20.2992" gradientUnits="userSpaceOnUse">
<stop stop-color="#FFE000"/>
<stop offset="0.4087" stop-color="#FFBD00"/>
<stop offset="0.7754" stop-color="#FFA500"/>
<stop offset="1" stop-color="#FF9C00"/>
</linearGradient>
<linearGradient id="paint2_linear_5_30" x1="22.6552" y1="24.4983" x2="3.81532" y2="41.2673" gradientUnits="userSpaceOnUse">
<stop stop-color="#FF3A44"/>
<stop offset="1" stop-color="#C31162"/>
</linearGradient>
<linearGradient id="paint3_linear_5_30" x1="6.2131" y1="5.43689" x2="14.611" y2="12.9232" gradientUnits="userSpaceOnUse">
<stop stop-color="#32A071"/>
<stop offset="0.0685" stop-color="#2DA771"/>
<stop offset="0.4762" stop-color="#15CF74"/>
<stop offset="0.8009" stop-color="#06E775"/>
<stop offset="1" stop-color="#00F076"/>
</linearGradient>
<linearGradient id="paint4_linear_5_30" x1="22.6468" y1="27.5077" x2="7.54675" y2="41.0471" gradientUnits="userSpaceOnUse">
<stop stop-color="#CC2E36"/>
<stop offset="1" stop-color="#9C0E4E"/>
</linearGradient>
<linearGradient id="paint5_linear_5_30" x1="10.2559" y1="8.51801" x2="0.453359" y2="17.3074" gradientUnits="userSpaceOnUse">
<stop stop-color="#008DE0"/>
<stop offset="0.00657" stop-color="#008DE0"/>
<stop offset="0.2601" stop-color="#00A7E0"/>
<stop offset="0.5122" stop-color="#00B8E0"/>
<stop offset="0.7604" stop-color="#00C4E0"/>
<stop offset="1" stop-color="#00C7E0"/>
</linearGradient>
<linearGradient id="paint6_linear_5_30" x1="31.0995" y1="20.374" x2="8.39215" y2="20.374" gradientUnits="userSpaceOnUse">
<stop stop-color="#E0C500"/>
<stop offset="0.4087" stop-color="#E0A600"/>
<stop offset="0.7754" stop-color="#E09100"/>
<stop offset="1" stop-color="#E08900"/>
</linearGradient>
<linearGradient id="paint7_linear_5_30" x1="31.0995" y1="20.3751" x2="8.39224" y2="20.3751" gradientUnits="userSpaceOnUse">
<stop stop-color="#FFE840"/>
<stop offset="0.4087" stop-color="#FFCE40"/>
<stop offset="0.7754" stop-color="#FFBC40"/>
<stop offset="1" stop-color="#FFB540"/>
</linearGradient>
<linearGradient id="paint8_linear_5_30" x1="10.2463" y1="8.53603" x2="0.850618" y2="16.5956" gradientUnits="userSpaceOnUse">
<stop stop-color="#40B8FF"/>
<stop offset="0.00657" stop-color="#40B9FF"/>
<stop offset="0.2601" stop-color="#40CEFF"/>
<stop offset="0.5122" stop-color="#40DDFF"/>
<stop offset="0.7604" stop-color="#40E7FF"/>
<stop offset="1" stop-color="#40EAFF"/>
</linearGradient>
<linearGradient id="paint9_linear_5_30" x1="6.19611" y1="8.1874" x2="12.939" y2="14.2334" gradientUnits="userSpaceOnUse">
<stop stop-color="#65B895"/>
<stop offset="0.0685" stop-color="#62BD95"/>
<stop offset="0.4762" stop-color="#50DB97"/>
<stop offset="0.8009" stop-color="#44ED98"/>
<stop offset="1" stop-color="#40F498"/>
</linearGradient>
</defs>
</svg>
