<svg width="83" height="75" viewBox="0 0 83 75" fill="none" xmlns="http://www.w3.org/2000/svg">
<path d="M36.4179 8.41299L37.0211 8.08272C35.9638 7.31483 33.0047 6.43134 30.5494 5.54785L32.1105 6.2662C31.777 6.50565 33.1111 7.1662 33.0117 7.45519C33.1253 6.78638 35.2044 8.07446 36.4179 8.41299Z" fill="#424242"/>
<path d="M40.8389 8.90005L36.6734 7.70264L38.3197 8.51192L40.8389 8.90005Z" fill="#424242"/>
<path d="M40.1222 9.70923C40.3357 9.84201 40.5589 9.95253 40.7892 10.0395C40.5735 9.91206 40.3507 9.80172 40.1222 9.70923Z" fill="#FC8156"/>
<path d="M46.4094 11.2201C44.5275 10.6571 42.6787 9.95385 40.8744 9.11462C41.3342 9.40266 41.8081 9.65905 42.2936 9.88248C40.995 9.45314 39.1997 9.05681 37.674 8.58618C38.2417 9.20543 39.1571 9.29625 40.1222 9.69257C39.8738 9.52744 39.8028 9.39532 40.2712 9.45312C41.6408 10.3531 42.691 10.1219 43.9754 10.9311L42.6271 10.6421C42.6981 11.121 45.4656 11.1705 45.2031 11.8806C47.1048 11.9962 44.0251 10.8072 46.4094 11.2201Z" fill="#424242"/>
<path d="M47.7435 11.9055C47.6016 11.9055 47.559 11.9716 47.5873 12.0294C47.6157 12.0872 47.8002 11.9633 47.7435 11.9055Z" fill="#FC8156"/>
<path d="M47.3107 12.4256C48.6944 12.9541 50.8588 13.7138 51.3555 13.2927C49.993 12.3844 49.6098 12.7642 48.886 12.7642C48.4311 12.5759 47.9955 12.3295 47.5874 12.0293C47.3319 12.0871 46.9275 12.1366 47.3107 12.4256Z" fill="#424242"/>
<path d="M53.903 14.2917L53.1934 14.1513V13.7715C52.8489 13.942 52.4785 14.03 52.1041 14.03C51.7298 14.03 51.3593 13.942 51.0148 13.7715C51.6748 14.2999 52.0012 14.0605 52.7108 14.4403L53.903 14.2917Z" fill="#424242"/>
<path d="M52.2921 11.7237C51.4355 11.588 50.5733 11.5053 49.7091 11.4761C51.3199 11.6742 53.8959 13.1273 53.7256 12.1283C53.2128 11.9436 52.6848 11.8219 52.1502 11.765L52.2921 11.7237Z" fill="#424242"/>
<path d="M53.8179 12.1614C54.6031 12.6029 55.4483 12.8822 56.3157 12.9871C55.5423 12.7228 54.6126 12.4091 53.8179 12.1614Z" fill="#424242"/>
<path d="M53.7255 12.1289H53.8184L53.7255 12.0706V12.1289Z" fill="#FC8156"/>
<path d="M57.1033 15.8192L55.0099 14.9109L55.4925 15.2494L57.1033 15.8192Z" fill="#424242"/>
<path d="M54.939 13.4413C56.6279 14.1102 54.1017 12.723 55.7125 13.2927C56.1596 13.3918 53.3424 12.467 53.1579 12.6735C53.5553 12.9129 54.8681 12.9624 54.939 13.4413Z" fill="#424242"/>
<path d="M60.2044 17.0001C60.914 17.0001 61.9359 17.9084 62.83 18.0983L63.2487 17.9579C61.2404 17.7763 61.1979 16.5378 60.2044 17.0001Z" fill="#424242"/>
<path d="M67.7547 19.1716C67.478 19.2624 66.9458 19.0725 66.9812 19.312C66.3568 19.023 66.5484 18.833 66.1439 18.5936C64.973 18.4945 63.3054 17.6853 62.3829 17.6357C62.6768 17.7012 62.9612 17.8153 63.2274 17.9743C64.8666 18.8 67.258 19.2129 68.3437 20.2203C68.1379 19.7909 69.2237 19.7909 67.7547 19.1716Z" fill="#424242"/>
<path d="M61.3682 15.7203C60.9991 15.5799 60.6585 15.4396 60.3321 15.2993C60.6557 15.507 61.0053 15.6546 61.3682 15.7368V15.7203Z" fill="#424242"/>
<path d="M61.6236 15.6378C62.1842 15.4479 63.4615 16.2571 63.7879 16.0259C63.7879 15.8525 63.0145 15.4892 62.7945 15.3158C62.3049 15.8195 60.8572 14.6222 61.3753 15.7204C61.9504 15.9375 62.5355 16.1167 63.128 16.2571L61.6236 15.6378Z" fill="#424242"/>
<path d="M58.8419 14.3496L58.1323 14.5891C58.8721 14.765 59.6002 15.0023 60.3109 15.2993C59.9915 15.0185 60.2683 14.8121 58.8419 14.3496Z" fill="#424242"/>
<path d="M62.8159 15.3486C62.8456 15.3167 62.8718 15.2807 62.8939 15.2413C62.7236 15.2001 62.7307 15.2413 62.8159 15.3486Z" fill="#FC8156"/>
<path d="M69.77 18.5935L69.2378 18.4119L69.3939 18.4862L69.7345 18.6431L70.1177 18.8082C70.508 18.9651 70.8912 19.1137 71.2815 19.2541C70.9835 19.1055 70.6713 18.9651 70.3306 18.8165L69.77 18.5935Z" fill="#424242"/>
<path d="M68.1734 17.8255C68.6417 18.1476 68.805 18.4366 68.067 18.2797L67.4566 17.6108L65.42 17.5613C66.9599 17.6604 68.4004 19.0394 68.8759 18.387L69.5359 18.9073L69.2449 18.3953L68.7624 18.1558L68.1734 17.8255Z" fill="#424242"/>
<path d="M73.6871 19.865L73.7794 19.9558C72.9377 19.7973 72.1075 19.5654 71.2957 19.2622L71.4944 19.3613C72.0706 19.6468 72.626 19.9865 73.1549 20.3769C72.6936 21.442 72.275 22.2677 71.9627 22.9448C71.8563 23.176 71.7569 23.3907 71.6789 23.6053C71.6789 23.6466 71.615 23.6631 71.5866 23.6053C71.5823 23.0941 71.7109 22.5933 71.9556 22.1686C72.1969 21.6485 72.5091 21.0374 72.6653 20.6659C72.6044 20.6183 72.5328 20.5929 72.4595 20.5929C72.3862 20.5929 72.3145 20.6183 72.2537 20.6659C72.31 20.7274 72.3693 20.7853 72.4311 20.8393C72.1179 21.5384 71.8453 22.2611 71.615 23.0026C71.5015 23.3411 71.4022 23.6384 71.3099 23.8283C71.2445 24.0303 71.1456 24.2154 71.0189 24.3732C71.0189 24.7696 71.4376 23.7952 71.2957 24.8191C71.0683 25.5688 70.7163 26.259 70.2596 26.8503L70.3306 27.7833C69.8907 27.7833 69.55 29.3521 69.1597 31.0365C69.5784 29.9301 70.0113 28.7907 70.437 27.5934C70.6783 26.9163 70.9196 26.2062 71.1467 25.4796C71.1892 25.331 71.2389 25.1741 71.2886 25.0255C70.948 28.031 69.6139 30.4916 68.9255 33.4558C68.8404 35.0081 69.4578 32.1099 69.6707 32.0191C70.1248 32.6301 69.0107 33.3402 69.2946 34.1741C69.6565 34.5127 70.5222 31.2677 71.097 30.0457C71.3312 28.9145 71.1963 28.8815 71.0544 28.4604C71.3595 28.2622 71.7215 27.1475 72.0195 26.9411C72.0807 26.3944 72.1852 25.8554 72.3318 25.331C72.3956 25.0916 72.4666 24.8686 72.5375 24.6457C72.6085 24.4228 72.7007 24.1503 72.7788 23.8943C73.2097 22.6813 73.5216 21.4154 73.7084 20.1209C73.7495 20.03 73.8049 19.9488 73.8716 19.8815L73.6871 19.865Z" fill="#424242"/>
<path d="M73.8716 19.9313L73.5026 21.3763C73.3678 21.814 73.5026 21.4506 73.6517 20.9635C73.8007 20.4763 73.9568 19.8983 73.8716 19.9313Z" fill="#FC8156"/>
<path d="M68.1733 17.8258C68.0669 17.7515 67.9534 17.6854 67.8256 17.6111C67.9382 17.6897 68.0543 17.7613 68.1733 17.8258Z" fill="#FC8156"/>
<path d="M65.7607 16.9507L64.6963 16.5955C65.0345 16.7731 65.393 16.8928 65.7607 16.9507Z" fill="#424242"/>
<path d="M66.9883 16.934C65.3562 16.1827 66.229 16.934 65.7607 16.934L67.2863 17.4377L66.9883 16.934Z" fill="#424242"/>
<path d="M68.8688 35.1652C68.8688 36.2138 69.3514 35.1652 69.5785 33.9927C69.3017 35.0165 68.9682 35.4707 68.8688 35.1652Z" fill="#FC8156"/>
<path d="M63.6532 47.5505C63.5112 47.6166 63.3481 47.9056 63.2274 48.7313C63.4151 48.3622 63.5583 47.9649 63.6532 47.5505Z" fill="#424242"/>
<path d="M71.5583 22.342C71.5583 22.4742 71.4874 22.6063 71.4448 22.7384C71.4901 22.6093 71.528 22.4769 71.5583 22.342Z" fill="#FC8156"/>
<path d="M66.371 38.3358L66.4632 38.1707C66.4308 38.2198 66.4023 38.2723 66.3781 38.3275L66.371 38.3358Z" fill="#FC8156"/>
<path d="M28.6406 5.8284L27.8884 5.60547C28.1378 5.69807 28.3912 5.77525 28.6477 5.83666L28.6406 5.8284Z" fill="#FC8156"/>
<path d="M29.4637 5.57249C29.2419 5.36855 29.0043 5.1889 28.7541 5.0358C28.4276 4.85587 28.0773 4.74141 27.718 4.69727C28.026 4.85153 28.3206 5.03953 28.598 5.25873C28.676 5.3413 28.598 5.3413 28.4915 5.3413C28.3851 5.3413 28.2715 5.3413 28.2644 5.39084C28.2573 5.44038 28.3638 5.58075 28.6477 5.82845C29.556 6.10093 30.4784 6.37342 31.3655 6.61287C30.6764 6.42316 30.0288 6.06887 29.4637 5.57249Z" fill="#424242"/>
<path d="M31.3583 6.61304C31.5003 6.66258 31.6493 6.70384 31.8125 6.74513L31.3583 6.61304Z" fill="#FC8156"/>
<path d="M48.9001 11.3853H48.8079C48.9711 11.4097 49.0562 11.4178 48.9001 11.3853Z" fill="#FC8156"/>
<path d="M23.5313 63.7753C23.9216 64.0147 24.8796 64.0642 25.5892 64.444C24.9647 64.1551 23.9074 63.3955 23.5313 63.7753Z" fill="#424242"/>
<path d="M23.1339 65.5338V65.4512C23.0346 65.4512 22.9068 65.4512 22.7578 65.4512L23.1339 65.5338Z" fill="#424242"/>
<path d="M23.2403 65.2449L23.1623 65.4514C23.3752 65.4597 23.4603 65.4101 23.2403 65.2449Z" fill="#424242"/>
<path d="M20.3663 64.4771L21.7501 65.0055C21.6437 65.2945 21.594 65.4349 20.7496 65.0963C21.2044 65.3034 21.6823 65.4341 22.1688 65.4844L21.8566 65.344C22.1629 65.34 22.469 65.3649 22.772 65.4184C21.5585 64.9395 20.8063 63.8743 20.3663 64.4771Z" fill="#424242"/>
<path d="M18.3369 64.0642C18.8691 64.2541 20.1677 64.6835 19.8767 64.1633L18.3369 64.0642Z" fill="#424242"/>
<path d="M16.357 62.8589C17.904 63.6846 17.1375 62.8589 18.1026 63.1148C17.8448 63.0034 17.5749 62.934 17.3008 62.9084C18.1026 63.3791 16.7189 62.8589 16.357 62.8589Z" fill="#424242"/>
<path d="M18.1027 63.1147C18.2369 63.1685 18.3745 63.2099 18.5143 63.2385L18.1027 63.1147Z" fill="#FC8156"/>
<path d="M33.5228 66.5991L33.4731 66.4092C33.3808 66.434 33.3666 66.4835 33.5228 66.5991Z" fill="#FC8156"/>
<path d="M13.1708 61.2734L13.0147 61.1991L12.3051 60.9761L13.1708 61.2734Z" fill="#FC8156"/>
<path d="M10.6446 54.5517V54.511C10.6446 54.511 10.659 54.5029 10.6446 54.5517Z" fill="#FC8156"/>
<path d="M66.2858 37.8569C66.7754 36.5853 66.2858 38.8229 66.747 37.7826C66.6335 39.1449 65.4555 40.5403 65.1078 42.9101C65.2497 42.0844 65.4485 42.4807 65.4059 42.9101C64.8524 44.3468 64.3272 46.8156 63.9156 48.3183C63.9464 48.2955 63.9821 48.2834 64.0186 48.2834C64.055 48.2834 64.0907 48.2955 64.1215 48.3183C63.7537 49.3586 63.3392 50.3756 62.8796 51.3651C60.914 56.6991 59.5089 64.4688 57.6213 68.8945C56.9117 70.2321 57.6781 67.2431 57.3588 67.7881C57.1673 69.2111 57.0724 70.6495 57.075 72.0899C53.5384 70.3284 49.9182 68.804 46.232 67.5238C45.6714 67.433 45.1675 67.4165 45.8843 67.8211C47.1474 68.011 47.6725 68.5807 46.7145 68.5312C45.3662 68.2422 46.9558 68.2009 45.2953 68.0028L46.0049 68.3908C44.9299 67.9828 43.7979 67.8174 42.6697 67.9037C36.8366 65.278 30.0243 64.3615 25.064 61.6945L23.1551 61.5954C23.1551 61.356 22.999 61.0257 22.1049 60.8358C22.4172 60.9762 22.9565 61.166 22.8145 61.2156L18.8336 59.8284L19.1813 60.2083C18.4004 59.8238 17.5903 59.5253 16.7615 59.3165C15.9898 59.1607 15.2519 58.8296 14.59 58.3422C14.5262 58.4826 13.8237 58.3422 13.7243 58.5486C13.4192 58.3917 13.1141 58.2513 12.8089 58.111C13.0644 57.2853 13.2702 56.5092 13.4689 55.7165C13.7172 54.6844 13.9727 53.644 14.1785 52.6367C14.6136 50.7163 15.1905 48.8433 15.9029 47.0385C15.6616 47.344 15.6616 46.9229 15.619 46.7578C15.988 45.2468 15.8674 46.4523 16.1086 46.155C15.2145 45.1477 21.7856 25.9669 21.8424 23.333C21.7146 23.6963 21.594 24.0596 21.5514 23.8945C22.3462 20.7238 23.1764 17.4376 23.9996 14.1596C24.4041 12.5082 24.8086 10.8568 25.2131 9.27977L25.7453 7.05866L26.2136 5.06051L27.8173 5.54767C27.1574 5.29996 27.0155 5.06051 26.9374 4.82932C26.8594 4.59813 26.8736 4.3752 26.3343 4.11098C25.8375 4.04492 26.2278 4.25959 26.54 4.43298C26.8523 4.60637 27.0935 4.76326 26.4833 4.64767C26.2677 4.48811 26.0451 4.34203 25.8162 4.21005C25.6305 4.65339 25.552 5.14717 25.5891 5.63848C25.5969 5.87856 25.5706 6.11851 25.5111 6.34858C25.4123 6.68986 25.2713 7.01253 25.0924 7.30639C25.0924 6.87152 25.1066 6.39261 25.135 5.86967C24.8653 7.42197 24.5815 8.87518 24.2196 10.4935C23.8577 12.1119 23.4461 13.7963 23.0345 15.3238L22.7081 14.8862C22.5874 16.0917 22.1333 17.7018 21.7288 17.7761C22.7507 14.2009 21.9772 13.2513 22.9636 11.1706C23.0416 11.4926 22.9636 11.3275 23.1622 11.1293C23.1385 10.4669 23.1694 9.80326 23.2545 9.14765C23.3061 8.73543 23.3796 8.32732 23.4745 7.92565C23.5218 7.72198 23.5785 7.51556 23.6448 7.30639L23.7725 6.88528C23.8293 6.73665 23.879 6.57978 23.9286 6.43116V7.0917C23.9206 7.24569 23.9206 7.4001 23.9286 7.55408C24.3331 6.03482 24.7447 4.45776 25.1492 2.89721L28.0302 3.91279L29.3359 4.34217L30.4004 4.61463C29.8256 4.18527 30.5565 4.18526 31.5428 4.47425C33.0118 5.09352 31.039 4.51555 31.6138 4.95317C32.3944 5.77886 35.2471 5.95225 36.3186 6.34032C35.9567 6.34032 39.1216 7.62839 37.0992 7.16601C39.4196 8.12381 41.2788 7.9917 42.6839 9.13115C43.2048 8.98451 43.7465 8.96763 44.2734 9.08161L44.1173 9.51096L44.983 9.46969C46.5584 10.0312 47.1119 11.1789 48.8008 11.3605C48.4885 11.2862 47.857 11.0963 47.8712 10.8486C48.1124 10.5183 51.1567 11.4761 50.7097 10.7578L49.2904 10.6174C49.8439 10.4275 48.0983 9.89903 48.5099 9.79169L44.8837 8.74308V8.36327L45.6785 8.84215C46.9203 8.4128 43.9328 8.31372 43.0103 7.50454L42.9109 7.78527C39.8809 6.45592 41.7117 7.07518 39.2209 5.92747L38.3623 5.97701C38.2203 6.0183 40.7466 6.40637 40.5905 6.8027C38.8803 6.51371 36.645 5.655 34.8 5.41555L36.2192 5.15959C35.5522 5.15959 34.6581 4.13572 33.0331 3.64857L34.4523 4.41648C33.4617 4.4106 32.4812 4.18356 31.5641 3.74767C30.9965 3.53299 30.4075 3.31004 29.8327 3.11187L29.3643 2.96326L28.6547 2.74033C28.1816 2.59721 27.7417 2.4816 27.3348 2.39353C28.236 2.71555 29.1443 3.03756 29.2366 3.29353C27.8654 2.97451 26.5264 2.49025 25.2414 1.84857C25.2414 1.43573 27.278 2.03848 29.2082 2.67426L29.5488 2.77334L29.7475 2.83114L30.1236 2.93022C30.372 2.99628 30.592 3.04584 30.7694 3.07886C31.1313 3.13666 31.3371 3.12015 31.2519 2.92198C30.8356 2.76286 30.4114 2.63326 29.9817 2.53391L29.6694 2.46784L29.4353 2.41003L29.1514 2.33572L28.0728 2.06326C26.6536 1.73298 25.5111 1.51005 24.5247 1.23757C24.3835 1.95024 24.2082 2.65316 23.9996 3.34307C24.0847 2.51738 24.177 1.6504 24.2906 0.733887H24.4183H24.2764L23.808 3.02106L24.0067 2.38526C23.9567 3.1231 23.8083 3.84739 23.5667 4.53206C23.4461 4.92839 23.3184 5.35776 23.1836 5.78712C23.1197 6.01006 23.0558 6.23297 22.999 6.46417L22.921 6.8027L22.8784 6.97609V7.08343V6.98435V6.81097V6.46417V5.73756L22.2469 8.14858L22.41 7.95042C21.8479 10.7929 21.0787 13.5745 20.1109 16.2651L20.6857 14.7128C20.6292 15.3233 20.4903 15.9196 20.2741 16.4798C20.565 16.3394 20.9837 14.3082 21.1753 14.5312C20.4657 17.1321 20.0683 17.3633 19.2097 19.9064C19.2877 20.2284 20.2315 18.4367 19.82 20.633C19.5361 20.344 18.9187 22.1605 18.9613 20.633C18.7271 22.5486 18.3439 21.9376 18.3439 23.5312C18.3976 23.2889 18.4663 23.0516 18.5497 22.8211C18.8761 22.4165 18.5497 23.6467 18.4646 24.1917C17.9505 24.9476 17.5499 25.799 17.2795 26.7101L16.7473 29.6825C16.6622 29.7899 16.6196 29.6247 16.6196 29.6247C16.0448 32.4403 15.0584 35.3385 14.732 37.4358C14.81 37.7578 14.81 38.6 15.179 37.089C15.179 38.3605 14.4694 39.8468 14.0295 41.0357L13.9514 39.8715C13.1282 43.4137 11.5742 47.4431 11.1129 50.7376L11.5174 50.2422C11.3613 51.0018 11.1839 51.7532 10.9852 52.4798C10.8859 52.8431 10.7865 53.1982 10.6942 53.5449L10.3891 54.6018C9.71497 57.0789 9.10471 59.2917 8.84924 60.7532C9.23244 59.6963 9.39565 59.3495 9.43114 59.399C9.41375 59.7767 9.34919 60.1495 9.23952 60.5055C10.3891 60.8688 12.078 61.4633 12.596 61.5706C11.6451 61.1743 10.531 60.745 9.38856 60.4147C9.75047 58.9202 10.0982 57.4422 10.3253 56.2862C10.524 55.3945 10.68 54.7091 10.7439 54.544C10.7175 54.5655 10.6957 54.5938 10.6801 54.6266L11.4677 50.4981L11.8368 50.6715C11.0633 50.1514 13.6037 45.3458 12.6599 45.866C12.9083 44.7183 13.3695 44.3715 13.5256 44.5945L14.1004 41.3578C14.3417 41.0605 14.5475 41.8614 14.4268 42.2247C14.0933 43.4715 13.8875 45.6183 13.1921 46.6917C13.1495 47.7981 13.8449 45.866 13.3553 48.178C12.7262 49.8715 12.1952 51.6121 11.7658 53.3881L10.9639 56.5257C10.6375 57.7642 10.3181 58.9367 9.98462 60.0348C10.4246 60.2165 10.8291 60.3981 11.2052 60.588C10.4956 60.1752 9.72915 59.9027 10.9568 60.0761C11.6238 60.4312 12.3405 60.811 13.0856 61.2073C13.6108 61.3559 14.1004 61.4798 14.5049 61.5459L15.2784 61.6284C15.7486 61.6442 16.2086 61.7915 16.6196 62.0578C16.8254 61.9835 16.2577 61.711 15.5409 61.3973L14.3559 60.8853C13.8663 60.6789 13.4405 60.489 13.1921 60.3569C13.6676 60.2878 14.1501 60.3299 14.6113 60.4807C14.7063 60.5064 14.7989 60.5424 14.8881 60.588L15.1365 60.7036L15.6332 60.9927C16.2577 61.4899 17.0067 61.731 17.7621 61.678C18.4717 61.2981 14.2636 60.6293 15.5906 60.2908L17.3789 61.0587C16.8035 60.5478 16.1235 60.2205 15.4061 60.1092C14.7604 59.944 14.0295 59.7541 13.9869 59.3495C14.5252 59.4104 15.0533 59.5606 15.5552 59.7954C15.9643 59.946 16.359 60.1452 16.7331 60.3899C17.3221 60.4394 15.8177 59.5642 16.8537 59.7293C17.8259 60.3899 18.4291 60.0596 19.1742 60.6789L18.6207 60.8688C19.38 61.1082 21.2534 61.967 22.1688 62.1569C22.1049 62.6853 19.8554 62.2064 19.0039 61.8679C19.9022 62.3951 20.8567 62.781 21.8424 63.0156L20.5083 62.3468C22.5662 63.0156 22.2894 62.1156 24.6028 63.0651C26.5755 63.6431 24.986 63.6844 25.5608 64.1137C27.8032 64.5926 26.3201 64.3532 26.3839 63.833C28.1296 64.3614 28.5128 64.7412 30.7623 65.4844C29.414 65.1954 28.9953 65.3357 27.7535 64.766L28.0444 65.2862C29.8469 65.6743 31.3016 65.6743 33.4588 66.0624L33.5653 66.4422C34.062 66.3183 50.7523 72.1642 49.8865 71.1982C50.1136 71.3633 46.5513 70.1165 43.4077 69.0266L43.6064 68.9605C46.2178 69.6459 53.5836 71.9908 51.4122 71.2972C51.7031 70.8184 52.7604 71.5862 52.8314 71.0578C54.3011 71.4174 55.7513 71.8779 57.1743 72.4367C57.2594 74.4349 57.7632 75.1284 58.5438 74.9798L58.6503 74.1954C58.7213 74.2615 59.0193 74.2862 59.1683 73.4358C59.3883 72.1477 58.998 72.9899 58.8277 73.0724H58.7709C58.7585 73.0044 58.7585 72.9341 58.7709 72.866C60.1121 71.3633 59.6295 67.0862 61.2049 65.5092C63.0712 57.6569 65.3065 48.1697 67.3289 41.2009L67.1515 41.5229C67.2225 40.6972 67.8612 38.8559 68.0669 38.8807L67.7902 38.4348C68.3153 35.7348 68.6488 40.1605 69.3514 37.1468C68.734 38.6 68.4785 37.1055 68.8404 35.9908C68.6701 36.222 68.067 35.9908 67.9392 36.6183L67.1302 38.0963C67.7192 38.3688 66.747 40.9202 66.3709 41.8037C66.3679 41.768 66.3679 41.732 66.3709 41.6963C66.4561 41.3413 66.4277 41.3908 66.3709 41.589C66.293 41.1788 66.2906 40.7541 66.364 40.3427C66.4374 39.9314 66.5848 39.5429 66.7967 39.2027C67.0327 37.9921 67.3361 36.8006 67.705 35.6358C67.0162 36.1514 66.5118 36.9408 66.2858 37.8569ZM39.0506 67.5816L39.6183 67.7881L38.9087 67.5651L39.0506 67.5816ZM43.0103 68.9358L42.6271 68.8036C42.5916 68.7541 42.8826 68.8037 43.3864 68.9358H43.0103Z" fill="#424242"/>
<path d="M67.5489 35.5696C67.9288 35.1884 68.2173 34.6991 68.3863 34.1494C68.3863 34.0586 68.3224 33.9595 68.2656 34.0339C68.6324 33.0811 68.9246 32.0918 69.1385 31.0779C69.0746 31.243 69.0107 31.3999 68.954 31.5651C68.443 32.9109 67.9676 34.232 67.5489 35.5696Z" fill="#FC8156"/>
<path d="M67.9677 38.8147L68.0254 38.9063C68.011 38.848 68.011 38.823 67.9677 38.8147Z" fill="#FC8156"/>
<path d="M15.541 37.2211C15.541 37.5266 15.4062 37.5266 15.4487 37.7908C15.3296 38.4493 15.1513 39.0914 14.9165 39.7064C14.6469 40.5321 14.3346 41.3578 14.0721 42.1835C13.6676 43.1165 13.2702 43.9422 12.8657 44.8257C12.6883 45.189 10.595 48.3018 10.375 48.5083C9.79309 48.9706 8.81381 50.3165 8.2816 50.7294C7.64211 51.1088 6.96863 51.4051 6.27336 51.6129C5.69746 51.7003 5.1134 51.6835 4.54189 51.5633C3.60519 51.4064 2.22143 49.8046 1.78146 48.7642C1.52897 48.3278 1.31949 47.8597 1.15699 47.3688C0.966579 46.5369 0.847724 45.685 0.802185 44.8257C0.802185 40.4743 1.24215 39.8715 2.31368 35.6523C2.39883 35.289 2.4485 34.9835 2.53366 34.6202C2.59796 34.2651 2.68818 33.917 2.80332 33.5798C2.93814 33.0101 3.07297 32.4403 3.2007 31.9284C3.42778 30.789 4.61994 28.8156 3.51293 28.5596C3.2007 28.5018 2.93814 28.5596 2.66849 28.2954C2.39883 28.0312 2.13627 27.9321 1.86661 27.7257C1.73328 27.6127 1.63792 27.4492 1.59695 27.2633C1.66828 27.2161 1.74463 27.18 1.82404 27.1559L3.64776 26.6936C4.07409 26.5931 4.50546 26.5241 4.93928 26.4871C5.0378 26.4651 5.13013 26.4152 5.20811 26.3417C5.28609 26.2683 5.34731 26.1736 5.38634 26.066C5.56087 25.6663 5.71029 25.2524 5.8334 24.8275C6.27337 23.8449 6.5856 22.8046 7.07523 21.8715C7.48012 21.0752 7.97408 20.345 8.54415 19.7C8.63957 19.5512 8.74391 19.4105 8.85639 19.2789C8.93416 19.1964 9.0267 19.1351 9.12734 19.0994C9.22798 19.0637 9.3342 19.0545 9.43828 19.0725C9.70793 19.1798 9.97049 19.0229 10.2827 19.0229C10.3253 19.0229 10.3253 19.0229 10.375 18.9734C10.9994 18.8165 11.2194 19.1302 11.3968 19.7C11.6139 20.213 11.721 20.7796 11.709 21.3513C11.713 21.6297 11.744 21.9067 11.8013 22.177C11.8439 22.4167 11.8439 22.664 11.8013 22.9036C11.7516 23.1596 11.709 23.4156 11.6664 23.7293C11.6239 24.0431 11.489 24.555 11.3968 24.9761C11.4033 25.1156 11.3889 25.2553 11.3542 25.389C11.491 25.4744 11.6471 25.509 11.8013 25.4881L13.4476 25.3394H15.761C16.0448 25.3683 16.3269 25.418 16.6054 25.4881C16.553 25.5976 16.4937 25.7025 16.428 25.8018C16.3376 25.9078 16.232 25.9944 16.1158 26.0578C15.8035 26.2147 15.4487 26.4211 15.1365 26.578C15.1365 26.5911 15.132 26.6037 15.124 26.613C15.116 26.6223 15.1052 26.6275 15.0939 26.6275C14.5818 26.7721 14.0591 26.8605 13.5327 26.8917C13.2156 26.8912 12.9001 26.944 12.596 27.0486C12.4088 27.1204 12.2164 27.1728 12.0213 27.2055L10.9994 27.3541C10.8149 27.4119 10.7298 27.5605 10.6375 27.7752C10.595 27.8247 10.595 27.8743 10.5524 27.9238C10.0202 29.6908 9.30344 31.3505 8.72156 33.0596C8.63847 33.2442 8.56501 33.4345 8.50158 33.6294C8.27951 34.1245 8.10119 34.6446 7.96936 35.1816C7.82144 35.6553 7.62613 36.107 7.38747 36.5275C7.21006 36.8908 7.25264 37.3532 7.03266 37.7165C6.37856 40.0433 6.04797 42.4767 6.05338 44.9248C6.10925 45.7373 6.25965 46.5373 6.50045 47.3028C6.60412 47.5347 6.73818 47.7464 6.89783 47.9303C6.9475 47.9303 6.99008 47.9798 7.07523 47.9798C7.61973 48.0463 8.16999 47.9585 8.67898 47.7238C8.94864 47.5092 10.2827 46.2706 10.5524 46.0064C11.5445 44.8833 12.4252 43.6342 13.1779 42.2826C13.5824 41.3991 13.8024 40.2596 14.1998 39.4257C14.3772 38.9138 14.8243 37.7743 15.0513 37.2046C15.2713 37.2706 15.5836 37.0642 15.541 37.2211ZM8.6364 29.5505C9.08346 28.2541 9.21829 27.222 7.74228 28.3037C7.25264 30.0128 7.07524 31.2101 6.67785 32.8119C5.69858 37.1137 7.12491 33.9018 7.74228 31.9862C7.9933 31.152 8.29201 30.3383 8.6364 29.5505ZM10.0202 23.589C10.0627 23.3826 10.1053 23.1266 10.1479 22.8624C10.1976 22.4495 10.2827 22.0367 10.3253 21.6238C10.3572 21.1556 10.3429 20.6846 10.2827 20.2202C10.2401 20.0137 10.1053 19.9642 10.0202 20.0715C9.84092 20.1862 9.69885 20.366 9.61568 20.5835C9.42297 21.0107 9.27297 21.4623 9.16862 21.9293C9.12604 22.0862 9.03379 22.2431 8.99121 22.4C8.94864 22.5569 8.81381 22.8128 8.72156 23.077C8.6364 23.589 8.54416 24.1587 8.41642 24.7284C8.23192 26.0743 9.48086 26.1321 9.75051 25.1991C9.82147 24.6789 9.92792 24.1587 10.0202 23.6055V23.589Z" fill="#FC8156"/>
<path d="M18.3368 39.0294C18.9377 37.2945 19.62 35.5993 20.3805 33.9514C20.6609 33.4899 20.9146 33.0072 21.1398 32.5065C21.4072 32.0983 21.6446 31.6647 21.8494 31.2102C21.9213 31.0518 22.0221 30.9135 22.1447 30.8051C22.2672 30.6968 22.4087 30.6208 22.5591 30.5826C22.8713 30.5826 23.1339 30.5331 23.4035 30.5331C23.9357 30.5331 24.248 31.0037 24.5176 31.6725V31.8625C24.6028 32.5395 24.7376 33.2661 24.8299 33.9927C24.8867 34.6815 24.9009 35.3741 24.8724 36.0652C24.8937 36.53 24.8937 36.9958 24.8724 37.4606C25.0924 37.6175 25.0498 37.8239 25.0924 37.7744C25.135 37.7248 25.4969 37.8239 25.5891 37.7166C25.6814 37.6092 25.7168 37.568 25.7665 37.4606C25.9645 37.2985 26.1434 37.1069 26.2987 36.8909C26.4336 36.6349 26.5684 36.6349 26.7458 36.8909C26.7485 36.9715 26.7337 37.0516 26.7027 37.1238C26.6716 37.196 26.6255 37.2579 26.5684 37.3037C26.5096 37.3812 26.4639 37.4708 26.4336 37.568C26.4136 37.6464 26.3791 37.7189 26.3325 37.7802C26.2859 37.8415 26.2284 37.8903 26.1639 37.923L26.0291 38.0799C25.9865 38.1377 25.8943 38.1872 25.8943 38.2368C25.8943 38.2863 25.8091 38.2863 25.7665 38.3441C25.7067 38.4269 25.6317 38.4929 25.5469 38.5373C25.4621 38.5816 25.3698 38.603 25.2769 38.6001C25.1287 38.6259 24.9891 38.6972 24.8724 38.8065C24.824 38.8581 24.7607 38.8868 24.695 38.8868C24.6293 38.8868 24.566 38.8581 24.5176 38.8065C24.2127 38.6473 23.8999 38.5095 23.5809 38.3937C23.3008 38.2798 23.0489 38.0878 22.8472 37.8344C22.6456 37.5811 22.5004 37.2742 22.4242 36.9404C22.1771 35.9846 22.1309 34.9737 22.2894 33.9927C22.3559 33.564 22.4009 33.1312 22.4242 32.6964C22.4668 32.3826 22.5094 32.0689 22.5591 31.7634C22.6358 31.5869 22.651 31.3829 22.6016 31.1936C22.5591 31.1936 22.4668 31.1358 22.4668 31.2432C22.3975 31.3182 22.3378 31.4044 22.2894 31.4991C22.112 31.9202 21.892 32.3248 21.6649 32.7955C21.5248 33.083 21.4355 33.4002 21.4024 33.7285C21.445 33.9349 21.3101 34.0918 21.2676 34.2487C20.8532 35.1067 20.5087 36.0078 20.2386 36.9404C20.0186 37.667 19.7064 38.2863 19.4438 39.0129C18.9954 40.0592 18.5928 41.1312 18.2375 42.2248C18.1523 42.5881 17.9678 43.001 17.8401 43.4221C17.4253 44.4868 16.9339 45.5087 16.3712 46.4771C16.3712 46.5762 16.2363 46.634 16.1441 46.7331C15.9469 47.0775 15.6513 47.3295 15.3097 47.4444C14.968 47.5593 14.6025 47.5296 14.2778 47.3606C14.1856 47.4597 14.1004 47.3606 14.0082 47.2533C13.2986 47.0469 12.9366 46.2707 12.7592 45.2304C12.647 44.3394 12.6019 43.4387 12.6244 42.5386C12.6741 41.1927 12.7167 39.8469 12.8018 38.4927C12.8673 37.5506 13.0026 36.6169 13.2063 35.7019C13.3103 34.4231 13.5658 33.1671 13.9656 31.9698C14.0477 31.6334 14.152 31.3048 14.2778 30.9872C14.5901 30.0542 14.8526 29.2202 15.2074 28.3946C15.3848 27.7175 15.5693 27.6184 16.0093 27.7175C16.3854 27.7454 16.7584 27.8145 17.1234 27.9239C17.4591 27.9903 17.7704 28.1714 18.0175 28.4441C18.3533 29.0794 18.7458 29.6716 19.1884 30.2111C19.3897 30.567 19.5153 30.9735 19.5548 31.397C19.5942 31.8206 19.5465 32.249 19.4155 32.6469C19.1884 33.6872 19.1032 32.9111 18.8761 34.001C18.3014 36.1725 17.2298 37.8817 16.7473 39.8551C16.0732 42.3487 18.1239 39.9129 18.3368 39.0294Z" fill="#FC8156"/>
<path d="M42.9252 37.5265C42.7924 38.18 42.5514 38.797 42.2156 39.343C42.0878 39.3926 42.0381 39.5495 41.953 39.599C41.8022 39.8365 41.6387 40.0626 41.4634 40.2761C41.3484 40.3686 41.2556 40.4936 41.1937 40.6394C41.0734 40.903 40.8881 41.1187 40.6615 41.2587C40.5693 41.2985 40.4899 41.3706 40.4344 41.4651C40.153 41.8096 39.857 42.1376 39.5474 42.4477C39.3034 42.6933 39.0147 42.8712 38.7029 42.9679C38.3268 43.0264 37.9546 43.1147 37.5888 43.2321C37.2509 43.343 36.9072 43.4285 36.5599 43.488H36.1625C35.6248 43.355 35.1126 43.1087 34.651 42.7614C34.5795 42.7013 34.5035 42.6488 34.4239 42.6046C34.0106 42.4235 33.6442 42.1221 33.3595 41.7293C33.0261 41.9095 32.7118 42.1339 32.4228 42.3981C32.2503 42.5014 32.0863 42.623 31.9331 42.7614C31.899 42.7676 31.8671 42.7848 31.8409 42.811C31.5784 43.2321 31.2165 43.2816 30.8617 43.4385C30.564 43.5546 30.2493 43.6006 29.9362 43.5737C29.6231 43.5467 29.3177 43.4474 29.0379 43.2816C28.8256 43.137 28.6023 43.0155 28.3709 42.9183C27.7717 42.6608 27.2506 42.2043 26.8722 41.6055C26.4938 41.0066 26.2747 40.2918 26.242 39.5495C26.1535 38.7494 26.2773 37.9369 26.5968 37.221C26.8859 36.5335 27.2431 35.8879 27.6613 35.2971C27.6613 35.2476 27.7109 35.1981 27.7535 35.1485C28.3499 34.1207 28.9967 33.1337 29.6908 32.1925C30.1838 31.5635 30.7527 31.0212 31.3797 30.5824C31.5081 30.5209 31.6452 30.4872 31.7842 30.4833C32.0626 30.4204 32.345 30.3845 32.6286 30.376H32.7634C33.0691 30.493 33.3823 30.5813 33.7001 30.6402C33.7824 30.6965 33.8746 30.7304 33.9698 30.7393C34.1898 30.7971 34.3671 30.7971 34.4594 31.0035C34.4816 31.0315 34.512 31.0491 34.5446 31.053C34.7646 31.053 34.949 31.309 35.169 31.309C35.2509 31.3135 35.3289 31.3515 35.389 31.4163C35.6777 31.6854 35.9331 31.9994 36.1483 32.3494C36.1909 32.5063 36.2334 32.6053 36.2831 32.7622C36.3417 32.9618 36.3325 33.18 36.2573 33.3719C36.1821 33.5638 36.0466 33.715 35.8786 33.7944C35.484 34.0246 35.1107 34.3012 34.7646 34.6201V34.6696C34.2308 35.2067 33.7393 35.7981 33.2956 36.4366C33.129 36.6708 32.9513 36.894 32.7634 37.1054C32.366 37.6256 32.0538 38.1953 31.6919 38.7568C31.5642 39.0128 31.3797 39.277 31.2519 39.4834C31.1762 39.5708 31.1159 39.6746 31.0745 39.7889C30.8165 40.3239 30.6343 40.9038 30.5352 41.5064C30.4926 41.5559 30.5352 41.6055 30.5352 41.7128C30.6015 41.6724 30.6615 41.6194 30.7126 41.5559C31.1708 41.0148 31.6617 40.5126 32.1815 40.0532C32.464 39.8136 32.7048 39.5138 32.8912 39.1697C32.9934 38.9999 33.1125 38.8447 33.246 38.7073C33.5202 38.3472 33.7738 37.9665 34.0053 37.5678C34.3104 36.9981 34.6226 36.4283 34.9349 35.8008C35.111 35.7517 35.2954 35.7596 35.468 35.8236C35.6406 35.8877 35.7949 36.0054 35.9141 36.1641L36.1838 36.4779C36.4434 36.9207 36.5819 37.4446 36.5812 37.9806C36.5717 38.0729 36.5424 38.161 36.496 38.2366C36.3186 38.7073 36.0915 39.2192 35.8716 39.6899C35.7405 40.0315 35.6938 40.4089 35.7367 40.7798C35.8347 41.2262 35.9702 41.6604 36.1412 42.0761C36.1834 42.1545 36.2419 42.2191 36.3114 42.2639C36.381 42.3087 36.4591 42.3321 36.5386 42.3321C36.859 42.294 37.1738 42.208 37.4753 42.0761C37.766 41.924 38.0481 41.7502 38.3197 41.5559C38.6319 41.3495 38.9442 41.1431 39.299 40.8789C39.5261 40.6229 39.7886 40.4165 40.0086 40.1522C40.5834 39.4834 41.4775 37.7742 42.0523 37.0971C42.102 37.0476 42.1446 37.0476 42.1871 36.9981C42.4764 37.0749 42.7358 37.2607 42.9252 37.5265Z" fill="#FC8156"/>
<path d="M56.7272 38.0467C56.605 38.4486 56.531 38.8681 56.5072 39.2935C56.4575 39.4421 56.195 39.599 56.1027 39.7063C56.0176 40.0201 54.5487 40.433 54.4139 40.433C53.9668 40.7385 52.8101 39.8054 52.6753 39.7559C52.6753 39.7559 52.0508 39.2357 52.0083 39.1862C51.9657 39.1366 51.249 38.3605 51.1638 38.2531C50.7593 37.3696 50.5393 37.1137 50.1349 36.288C49.8587 36.754 49.6345 37.259 49.4678 37.7907C49.113 38.5669 48.8433 39.3926 48.4034 40.2265C48.2686 40.3256 48.2189 40.4825 48.1337 40.5898C47.9799 41.1045 47.7191 41.5668 47.3744 41.9357C47.1149 42.3494 46.9049 42.8022 46.75 43.2816C46.75 43.3311 46.7074 43.488 46.7074 43.5376C46.7069 43.8744 46.6122 44.2018 46.4377 44.4706C46.1656 44.8289 45.9408 45.2325 45.7707 45.6678C45.5611 46.3857 45.1548 47.0036 44.614 47.4265C44.554 47.5253 44.4741 47.6055 44.3813 47.6602C44.2886 47.7149 44.1858 47.7424 44.0818 47.7403C43.9171 47.7474 43.7523 47.7279 43.5922 47.6825C43.3233 47.6993 43.0555 47.7351 42.7903 47.7898C42.6571 47.874 42.5102 47.9248 42.3591 47.9389C42.2081 47.9531 42.0561 47.9303 41.913 47.8719C41.77 47.8136 41.639 47.721 41.5286 47.6002C41.4181 47.4794 41.3306 47.3331 41.2717 47.1706C40.736 46.5439 40.1569 45.9695 39.5402 45.4531C39.1253 44.8867 38.8766 44.1808 38.8306 43.4384C38.8512 43.0553 38.8963 42.6744 38.9655 42.299C39.1429 41.5229 39.2351 40.5898 39.4125 39.7559C39.5473 39.1366 39.6325 38.5091 39.7673 37.8403C40.0796 36.3871 40.2995 34.9917 40.6118 33.6458C40.821 32.8641 40.9846 32.0669 41.1014 31.2595C41.1227 30.7699 41.182 30.2835 41.2788 29.8063C41.3285 29.2944 41.2788 29.5008 41.3285 29.0797C41.3525 28.9341 41.3982 28.7944 41.4633 28.6669C41.536 28.6229 41.6196 28.6096 41.6998 28.6291C41.78 28.6487 41.8519 28.7 41.9033 28.7742C41.968 28.8865 42.0442 28.9891 42.1304 29.0797C42.3078 29.344 42.2155 29.3935 42.5278 29.3935C42.5823 29.405 42.6344 29.4292 42.6807 29.4647C42.727 29.5001 42.7667 29.5462 42.7974 29.5999C43.0333 30.0094 43.3344 30.3625 43.6844 30.6403C43.8618 31.0531 44.174 31.3091 44.2237 31.8293C44.0734 31.8373 43.9229 31.8207 43.7767 31.7797C43.7133 31.9125 43.6767 32.0601 43.6693 32.2117C43.6619 32.3632 43.684 32.5148 43.7341 32.655C43.9148 33.2028 44.0039 33.7857 43.9966 34.3724C43.9966 34.6284 44.0463 34.8843 44.0463 35.0412C44.1927 35.6647 44.2526 36.3114 44.2237 36.9568V37.3697C44.2663 37.8898 44.2663 38.41 44.2663 38.9302C44.237 39.327 44.2513 39.7266 44.3089 40.1192C44.3294 40.3718 44.2823 40.6256 44.174 40.8458L44.0463 40.7963C43.9966 40.532 43.9966 40.3256 43.9541 40.1192C43.9541 40.0697 43.8618 40.0201 43.8192 39.9623C43.7766 39.9045 43.7341 39.8632 43.6844 39.9623C43.6347 40.0614 43.5992 40.0697 43.5992 40.1192C43.5992 40.6889 43.5992 41.2091 43.6418 41.7293C43.7019 41.9987 43.7163 42.2791 43.6844 42.555C43.6616 42.6345 43.6582 42.7197 43.6745 42.8013C43.6908 42.8829 43.7261 42.9577 43.7767 43.0174C43.8192 43.0174 43.9541 43.0752 43.9966 43.0174C44.0392 42.9596 44.0889 42.9183 44.0463 42.8109C44.0287 42.4766 44.0723 42.1417 44.174 41.8284L44.2663 41.7293C44.2663 41.7788 44.3089 41.8284 44.3089 41.9357C44.3822 42.2022 44.4134 42.482 44.4011 42.7614C44.4233 42.8681 44.4517 42.973 44.4863 43.0751C44.4854 43.1328 44.5032 43.1888 44.5359 43.232C44.3089 43.5871 44.5785 43.6944 44.6211 43.9504C44.7061 43.8967 44.7828 43.8269 44.8482 43.744C45.5452 42.8342 46.1832 41.8655 46.7571 40.8458L47.4241 39.7559C47.7306 39.286 47.9702 38.7619 48.1337 38.2036C48.2344 37.8005 48.385 37.4167 48.5808 37.0641C49.0704 35.7183 49.1556 36.5935 49.4678 35.4128C49.4183 34.8869 49.3281 34.3674 49.1981 33.8605C49.1981 32.8779 48.9782 32.9274 49.5104 32.7706C49.8922 32.8162 50.267 32.9218 50.6245 33.0843C50.8941 33.233 50.6742 33.2908 50.9864 33.2908C51.1384 33.2676 51.2928 33.3024 51.4264 33.3898C51.4717 33.4146 51.5113 33.4514 51.5421 33.4973C51.573 33.5432 51.5941 33.5969 51.6038 33.6541C51.6038 33.7531 51.6534 33.8027 51.696 33.9596C51.8249 35.2721 52.1415 36.5502 52.6327 37.7412C53.0301 38.1045 53.5198 39.5082 54.4139 39.3018C54.7777 39.1218 55.1496 38.9647 55.5279 38.8311C55.9253 38.732 56.2376 38.1623 56.6349 37.8981C56.6533 37.8795 56.6748 37.8655 56.698 37.857C56.7212 37.8485 56.7456 37.8456 56.7698 37.8485C56.8194 37.9394 56.7698 37.9972 56.7272 38.0467ZM43.6348 37.6834L43.6773 37.7907C43.6773 37.8403 43.727 37.7907 43.727 37.7907C43.749 37.6677 43.7774 37.5464 43.8122 37.4274V37.1632C43.7696 37.1137 43.727 37.0641 43.6773 37.1137C43.6277 37.1632 43.6348 37.2706 43.6773 37.2706C43.7258 37.3186 43.7709 37.3711 43.8122 37.4274C43.7803 37.5341 43.7176 37.6246 43.6348 37.6834ZM43.727 38.154C43.727 38.1387 43.7218 38.124 43.7125 38.1132C43.7031 38.1023 43.6905 38.0962 43.6773 38.0962C43.6348 38.0962 43.6348 38.154 43.6348 38.154C43.6348 38.154 43.6773 38.2531 43.6773 38.3027C43.7091 38.2619 43.7268 38.209 43.727 38.154ZM43.7696 38.6164V38.666H43.8122C43.8122 38.6164 43.8122 38.6164 43.7696 38.6164ZM44.0392 43.744C43.9895 43.8513 43.947 43.8513 43.947 43.9008C43.947 43.914 43.9514 43.9266 43.9594 43.9359C43.9674 43.9452 43.9783 43.9504 43.9896 43.9504C44.0157 43.9242 44.0477 43.907 44.0818 43.9008C44.0392 43.8513 44.0392 43.8513 44.0392 43.744ZM44.0818 43.2816C44.1011 43.2752 44.118 43.2616 44.1301 43.243C44.1422 43.2244 44.1487 43.2017 44.1487 43.1784C44.1487 43.155 44.1422 43.1323 44.1301 43.1137C44.118 43.0951 44.1011 43.0816 44.0818 43.0751H44.0392C44.0392 43.1247 43.9896 43.1742 43.9896 43.2816C43.9896 43.3889 44.0392 43.2816 44.0392 43.3807L44.0818 43.2816Z" fill="#FC8156"/>
<path d="M58.3309 37.3698C58.323 37.4277 58.3025 37.4823 58.2715 37.5285C58.2405 37.5747 58.1999 37.611 58.1535 37.634C58.1136 37.6589 58.08 37.6958 58.0563 37.7408C58.0326 37.7858 58.0196 37.8373 58.0187 37.89C57.9761 38.0964 57.9265 38.1542 57.7987 38.2038C57.671 38.2533 57.7065 38.3028 57.6639 38.6166C57.749 38.6166 57.7987 38.6166 57.8413 38.6662V38.724H57.5291C57.5618 38.587 57.5762 38.4449 57.5716 38.3028H57.4865C57.4368 38.6661 57.3942 39.0295 57.3517 39.3928C57.4368 39.4423 57.4865 39.5001 57.5291 39.5001C57.5645 39.8425 57.5787 40.1874 57.5716 40.5322C57.5797 40.8534 57.6399 41.17 57.749 41.4652C57.8839 41.6717 58.2387 42.8111 58.3735 43.0175C58.998 43.7442 59.7928 44.6689 60.5024 44.735C61.0866 44.6952 61.6676 44.6069 62.2409 44.4707C63.3588 44.0606 64.401 43.411 65.3136 42.5552C66.0658 41.8781 66.7825 41.1019 67.5418 40.3753L67.6695 40.2267C67.9392 39.8634 68.2089 39.5496 68.4714 39.1863C68.9648 38.6293 69.4137 38.0213 69.8126 37.3698C69.9164 37.0926 70.1065 36.8714 70.3448 36.7506C70.2728 37.198 70.1536 37.6334 69.99 38.0469C69.9415 38.2024 69.864 38.3434 69.7629 38.4597C69.5031 38.7899 69.2791 39.156 69.0959 39.5496C68.9611 39.7561 68.7837 39.9625 68.6488 40.1689C68.6062 40.2267 68.5637 40.3258 68.4714 40.4827C68.6062 40.4331 68.6985 40.3753 68.8333 40.3258C68.7836 40.6396 68.5636 40.6891 68.5211 40.9451C68.5636 41.0029 68.5637 41.0524 68.6488 41.1019C68.5301 41.3357 68.3818 41.5472 68.2089 41.7295C67.9334 41.9937 67.6792 42.2866 67.4496 42.6047C67.0539 43.0966 66.6217 43.547 66.1581 43.9506C65.9641 44.1606 65.7552 44.3512 65.5336 44.5203C65.3562 44.6772 65.1788 44.7845 65.0014 44.9414C64.7239 45.0895 64.4559 45.2606 64.1995 45.4533C63.7639 45.7735 63.2836 46.0026 62.7803 46.1304L62.3829 46.2873C61.8619 46.4788 61.3238 46.6007 60.7791 46.6506C59.4816 46.5861 58.1952 46.3422 56.9472 45.924C55.386 45.1974 55.0738 44.3139 54.3642 43.5873C54.0817 43.293 53.867 42.9212 53.7397 42.5056C53.5463 41.8002 53.4412 41.0661 53.4275 40.3258C53.4453 38.7286 53.7652 37.1556 54.3642 35.7185C54.499 35.4047 54.499 35.4047 54.4564 34.9423C54.35 34.9923 54.2546 35.0694 54.1772 35.168C54.0998 35.2666 54.0425 35.3842 54.0094 35.512C53.8661 35.9779 53.688 36.4282 53.4772 36.8579C53.5062 36.4567 53.6103 36.0678 53.7823 35.7185C54.1293 34.7957 54.5473 33.9113 55.0312 33.0762C55.5045 32.2141 56.0565 31.4141 56.6776 30.69C57.2689 29.934 57.9443 29.2732 58.6857 28.7249C58.839 28.6469 58.9883 28.5587 59.1328 28.4607C59.3528 28.3616 59.5728 28.3038 59.7076 28.568C59.8424 28.8322 60.0198 28.6671 60.1121 28.7744C60.2043 28.8818 60.2895 29.0799 60.3746 29.1873C60.8217 29.4432 62.5035 29.9634 62.9151 30.2772C63.0553 30.4171 63.1627 30.596 63.2273 30.7973C63.3987 31.2708 63.6387 31.7065 63.9369 32.0854C64.0241 32.2259 64.0846 32.3863 64.1143 32.5561C64.2279 33.1711 64.2279 33.8071 64.1143 34.4221C64.0073 35.1405 63.7808 35.8277 63.4473 36.445C63.2575 36.7884 63.0937 37.1503 62.9577 37.5267C62.8491 37.8951 62.6987 38.245 62.5106 38.5671C62.4296 38.7533 62.3167 38.9183 62.1787 39.0518C62.0408 39.1853 61.8809 39.2845 61.7087 39.3432C61.4478 39.4953 61.1529 39.5501 60.8643 39.5001C60.7295 39.4423 60.6017 39.5001 60.5095 39.2937C60.5105 39.2865 60.5102 39.2792 60.5085 39.2722C60.5069 39.2652 60.5039 39.2587 60.4998 39.2532C60.4958 39.2477 60.4907 39.2433 60.485 39.2403C60.4793 39.2373 60.4731 39.2358 60.4669 39.2359C60.1121 39.2937 59.885 38.823 59.6224 38.6662C59.571 38.593 59.539 38.5041 59.5302 38.4102C59.6224 38.2038 59.5302 38.0964 59.4876 37.9395C59.3133 37.4986 59.119 37.0686 58.9057 36.6515C58.8632 36.4946 58.7283 36.4451 58.5935 36.5937C58.4587 36.7423 58.3309 37.0643 58.3309 37.3698ZM54.0732 42.035C54.1158 42.1919 54.1584 42.2992 54.201 42.4478C54.2435 42.5964 54.3358 42.712 54.2506 42.9185C54.201 42.8689 54.1584 42.8689 54.1584 42.8111C53.9659 42.2122 53.8511 41.5833 53.8178 40.9451C53.7681 40.8955 53.8178 40.846 53.8178 40.7964C53.789 40.0283 53.8486 39.259 53.9952 38.5093C54.0445 38.3614 54.0732 38.2053 54.0803 38.0469V37.6836C53.9731 37.9155 53.8852 38.1588 53.8178 38.4102C53.7681 38.6662 53.7255 38.8726 53.6829 39.1368C53.4559 40.374 53.5805 41.6634 54.0378 42.8111C54.1419 43.0124 54.2606 43.203 54.3926 43.3808C54.4797 43.4797 54.5872 43.5508 54.7048 43.5873C54.7048 43.6451 54.7545 43.5873 54.8396 43.5873C54.7029 43.3608 54.5842 43.1203 54.4848 42.8689C54.35 42.5551 54.35 42.2414 54.2152 41.9854C54.1943 41.984 54.1734 41.9876 54.1539 41.9961C54.1343 42.0047 54.1165 42.0179 54.1016 42.035H54.0732ZM54.0732 38.7322C53.8879 39.5065 53.8564 40.3197 53.981 41.1102C53.981 41.168 54.0236 41.168 54.0732 41.2175C54.1158 40.6478 54.1584 40.1276 54.201 39.6074C54.282 39.267 54.2671 38.9052 54.1584 38.5753C54.1442 38.6166 54.1016 38.6662 54.1016 38.724L54.0732 38.7322ZM59.6792 34.5872C59.5665 34.7705 59.4622 34.9607 59.367 35.157C59.1896 35.5203 59.2393 35.7762 59.4593 35.9331C59.6118 36.021 59.7471 36.1447 59.8566 36.2964C60.1263 36.6597 60.4811 36.6019 60.8359 36.5524C61.1537 36.3915 61.4073 36.0965 61.5455 35.7267C61.8578 34.8432 62.0352 34.6863 62.3048 33.8029C63.0144 31.8377 61.5952 32.3001 60.8856 32.9276C60.4386 33.4224 60.0432 33.9767 59.7076 34.579L59.6792 34.5872Z" fill="#FC8156"/>
<path d="M81.8407 39.7065C81.6207 40.2267 80.8614 41.3579 80.8614 41.9358C80.7819 42.035 80.6912 42.1211 80.5917 42.1918C80.4424 42.3717 80.3222 42.5815 80.2369 42.8111C80.1469 43.0109 80.0424 43.2015 79.9247 43.3808C79.4106 44.568 78.7185 45.6389 77.881 46.5432C77.6113 46.8074 75.2483 49.4496 75.0425 49.7056C73.751 50.9523 72.0196 50.3826 70.7281 50.4322C70.4059 50.4559 70.0837 50.3849 69.7914 50.2257C69.2176 49.9554 68.6891 49.5697 68.2302 49.0863C67.8328 47.9468 66.8109 47.1707 66.7187 45.5606C66.6761 45.1478 66.4916 44.8835 66.449 44.4707C66.4916 42.8193 66.7187 41.1679 66.8961 39.4422C67.1658 38.2533 67.3857 36.9652 67.5631 35.768C67.8297 34.1878 68.3087 32.6663 68.9824 31.2597C69.4294 29.9138 69.8268 29.8065 70.2739 28.4606C70.5783 27.7464 70.9195 27.0543 71.2957 26.3881C71.6183 25.5976 71.9907 24.8358 72.4099 24.1092C73.1885 22.511 74.114 21.016 75.1703 19.6505C75.8373 18.8743 76.5895 18.0487 77.221 17.3716C77.5773 16.9909 77.9818 16.6762 78.4203 16.4386C78.5467 16.3493 78.6827 16.2799 78.8248 16.2322C79.1407 16.1493 79.4699 16.1657 79.7786 16.2799C80.0872 16.3941 80.3641 16.6019 80.5809 16.8819C80.7977 17.1618 80.9465 17.5039 81.012 17.873C81.0775 18.242 81.0574 18.6247 80.9536 18.9817C80.8614 19.601 80.8188 20.2202 80.684 20.7899C80.6107 21.2859 80.4591 21.7618 80.2369 22.1936C79.932 23.0852 79.5442 23.9352 79.0802 24.7285C78.768 25.4055 78.4132 26.0744 78.101 26.7514C77.5688 27.6844 77.1217 28.667 76.5895 29.5505C75.6528 31.0037 74.8509 32.556 74.0065 34.0092C72.5873 36.7505 72.7576 37.2212 72.2679 39.9624C72.1558 40.8894 72.1107 41.8258 72.1331 42.7615C72.1757 43.0753 72.3105 45.09 72.3602 45.3046C72.4674 45.8824 72.6467 46.4387 72.8924 46.956C72.9775 47.1707 73.602 47.3193 73.8291 47.4267C74.1413 47.6826 76.4973 45.7753 76.8095 45.5606C77.5186 45.0017 78.1626 44.3384 78.7254 43.5872C79.3261 42.8133 79.8499 41.963 80.2866 41.0524C81.0814 39.8056 81.351 38.7734 82.1955 37.4276C82.8199 37.3202 82.4651 38.4101 81.8407 39.7065ZM74.7445 30.3762C75.812 28.4696 76.7927 26.499 77.6823 24.4725C78.172 23.3826 78.5764 22.2927 79.0661 21.2111C79.2749 20.4493 79.4245 19.6672 79.5131 18.8743C79.5983 18.6184 79.5983 18.4615 79.3783 18.5688C79.2002 18.6086 79.0325 18.6963 78.8887 18.8248C78.2579 19.1248 77.7259 19.6513 77.3701 20.3276C77.0578 20.7404 76.8379 21.2111 76.4831 21.6239C76.1111 22.1556 75.8381 22.7713 75.6812 23.4322C75.4612 23.9523 75.2341 24.5716 75.0141 25.0835C74.6704 26.2121 74.2675 27.3151 73.8078 28.3863C73.6304 28.8982 73.4955 29.4679 73.3181 29.9881C72.7859 31.7468 73.0059 30.8716 72.5163 32.6303C72.3885 33.0432 72.4737 34.2817 73.0556 33.5138C73.6871 32.3496 74.1413 31.5735 74.7161 30.3762H74.7445Z" fill="#FC8156"/>
</svg>
